%TF.GenerationSoftware,KiCad,Pcbnew,7.0.6-7.0.6~ubuntu22.04.1*%
%TF.CreationDate,2023-08-03T12:39:29-07:00*%
%TF.ProjectId,2r2_dac_r3,3272325f-6461-4635-9f72-332e6b696361,rev?*%
%TF.SameCoordinates,Original*%
%TF.FileFunction,Copper,L2,Bot*%
%TF.FilePolarity,Positive*%
%FSLAX46Y46*%
G04 Gerber Fmt 4.6, Leading zero omitted, Abs format (unit mm)*
G04 Created by KiCad (PCBNEW 7.0.6-7.0.6~ubuntu22.04.1) date 2023-08-03 12:39:29*
%MOMM*%
%LPD*%
G01*
G04 APERTURE LIST*
%TA.AperFunction,ComponentPad*%
%ADD10R,1.600000X1.600000*%
%TD*%
%TA.AperFunction,ComponentPad*%
%ADD11O,1.600000X1.600000*%
%TD*%
%TA.AperFunction,ComponentPad*%
%ADD12C,2.000000*%
%TD*%
%TA.AperFunction,ComponentPad*%
%ADD13C,4.500000*%
%TD*%
%TA.AperFunction,ComponentPad*%
%ADD14R,1.700000X1.700000*%
%TD*%
%TA.AperFunction,ComponentPad*%
%ADD15O,1.700000X1.700000*%
%TD*%
%TA.AperFunction,ViaPad*%
%ADD16C,0.800000*%
%TD*%
%TA.AperFunction,Conductor*%
%ADD17C,0.250000*%
%TD*%
G04 APERTURE END LIST*
D10*
%TO.P,RN2,1,common*%
%TO.N,+5V*%
X82452000Y-113016000D03*
D11*
%TO.P,RN2,2,R1*%
%TO.N,Net-(RN2-R1)*%
X84992000Y-113016000D03*
%TO.P,RN2,3,R2*%
%TO.N,Net-(RN2-R2)*%
X87532000Y-113016000D03*
%TO.P,RN2,4,R3*%
%TO.N,Net-(RN2-R3)*%
X90072000Y-113016000D03*
%TO.P,RN2,5,R4*%
%TO.N,Net-(RN2-R4)*%
X92612000Y-113016000D03*
%TO.P,RN2,6,R5*%
%TO.N,Net-(RN2-R5)*%
X95152000Y-113016000D03*
%TO.P,RN2,7,R6*%
%TO.N,Net-(RN2-R6)*%
X97692000Y-113016000D03*
%TD*%
D10*
%TO.P,SW1,1*%
%TO.N,GND*%
X84992000Y-123516000D03*
D11*
%TO.P,SW1,2*%
X87532000Y-123516000D03*
%TO.P,SW1,3*%
X90072000Y-123516000D03*
%TO.P,SW1,4*%
X92612000Y-123516000D03*
%TO.P,SW1,5*%
X95152000Y-123516000D03*
%TO.P,SW1,6*%
X97692000Y-123516000D03*
%TO.P,SW1,7*%
%TO.N,Net-(RN2-R6)*%
X97692000Y-115896000D03*
%TO.P,SW1,8*%
%TO.N,Net-(RN2-R5)*%
X95152000Y-115896000D03*
%TO.P,SW1,9*%
%TO.N,Net-(RN2-R4)*%
X92612000Y-115896000D03*
%TO.P,SW1,10*%
%TO.N,Net-(RN2-R3)*%
X90072000Y-115896000D03*
%TO.P,SW1,11*%
%TO.N,Net-(RN2-R2)*%
X87532000Y-115896000D03*
%TO.P,SW1,12*%
%TO.N,Net-(RN2-R1)*%
X84992000Y-115896000D03*
%TD*%
D10*
%TO.P,RN1,1,BIT_OUT*%
%TO.N,Net-(RN1-BIT_OUT)*%
X82812000Y-101316000D03*
D11*
%TO.P,RN1,2,MSB_1*%
%TO.N,Net-(RN1-MSB_1)*%
X85352000Y-101316000D03*
%TO.P,RN1,3,2*%
%TO.N,Net-(RN1-2)*%
X87892000Y-101316000D03*
%TO.P,RN1,4,R3*%
%TO.N,Net-(RN1-R3)*%
X90432000Y-101316000D03*
%TO.P,RN1,5,R4*%
%TO.N,Net-(RN1-R4)*%
X92972000Y-101316000D03*
%TO.P,RN1,6,R5*%
%TO.N,Net-(RN1-R5)*%
X95512000Y-101316000D03*
%TO.P,RN1,7,R6*%
%TO.N,Net-(RN1-R6)*%
X98052000Y-101316000D03*
%TO.P,RN1,8,R7*%
%TO.N,GND*%
X100592000Y-101316000D03*
%TO.P,RN1,9,R8*%
X103132000Y-101316000D03*
%TO.P,RN1,10,R10*%
X105672000Y-101316000D03*
%TD*%
D12*
%TO.P,DAC1,1,1*%
%TO.N,Net-(J1-Pin_2)*%
X104932000Y-111316000D03*
%TD*%
D13*
%TO.P,H2,1,1*%
%TO.N,GND*%
X110232000Y-102516000D03*
%TD*%
D12*
%TO.P,GND1,1,1*%
%TO.N,GND*%
X104332000Y-124216000D03*
%TD*%
D13*
%TO.P,H1,1,1*%
%TO.N,GND*%
X110232000Y-123116000D03*
%TD*%
D14*
%TO.P,J1,1,Pin_1*%
%TO.N,GND*%
X104332000Y-120596000D03*
D15*
%TO.P,J1,2,Pin_2*%
%TO.N,Net-(J1-Pin_2)*%
X104332000Y-118056000D03*
%TO.P,J1,3,Pin_3*%
%TO.N,+5V*%
X104332000Y-115516000D03*
%TD*%
D16*
%TO.N,GND*%
X97432000Y-108016000D03*
X81732000Y-109166000D03*
X93736625Y-109566000D03*
X104332000Y-113216000D03*
X94432000Y-120216000D03*
X100032000Y-114216000D03*
X81632000Y-105816000D03*
X94332000Y-103516000D03*
X82832000Y-117816000D03*
X96832000Y-105316000D03*
X99159500Y-104115500D03*
X86432000Y-120216000D03*
X85736625Y-107766000D03*
X107032000Y-105916000D03*
X104784500Y-108578500D03*
%TO.N,Net-(J1-Pin_2)*%
X102759500Y-106266000D03*
%TO.N,Net-(RN1-R4)*%
X94432000Y-106716000D03*
%TO.N,Net-(RN1-R5)*%
X95524299Y-104548299D03*
%TO.N,Net-(RN2-R4)*%
X91332000Y-106216000D03*
%TO.N,Net-(RN2-R5)*%
X88829125Y-106313125D03*
%TO.N,Net-(RN2-R6)*%
X86336625Y-106213500D03*
%TD*%
D17*
%TO.N,Net-(J1-Pin_2)*%
X102759500Y-106266000D02*
X102759500Y-109143500D01*
X102732000Y-113516000D02*
X102732000Y-116456000D01*
X102759500Y-109143500D02*
X104932000Y-111316000D01*
X102732000Y-116456000D02*
X104332000Y-118056000D01*
X104932000Y-111316000D02*
X102732000Y-113516000D01*
%TO.N,Net-(RN1-R4)*%
X92972000Y-105256000D02*
X94432000Y-106716000D01*
X92972000Y-101316000D02*
X92972000Y-105256000D01*
%TO.N,Net-(RN1-R5)*%
X95524299Y-104548299D02*
X95512000Y-104536000D01*
X95512000Y-104536000D02*
X95512000Y-101316000D01*
%TO.N,Net-(RN2-R4)*%
X91332000Y-106216000D02*
X91336625Y-106220625D01*
X91336625Y-111740625D02*
X92612000Y-113016000D01*
X91336625Y-106220625D02*
X91336625Y-111740625D01*
%TO.N,Net-(RN2-R5)*%
X95152000Y-115896000D02*
X93832000Y-117216000D01*
X89532000Y-117216000D02*
X88832000Y-116516000D01*
X93832000Y-117216000D02*
X89532000Y-117216000D01*
X88832000Y-116516000D02*
X88832000Y-106316000D01*
%TO.N,Net-(RN2-R6)*%
X97432000Y-111116000D02*
X97432000Y-112656000D01*
X97332000Y-111016000D02*
X97432000Y-111116000D01*
X97432000Y-112656000D02*
X97442000Y-112666000D01*
X87486625Y-105416000D02*
X91732000Y-105416000D01*
X91732000Y-105416000D02*
X97332000Y-111016000D01*
X86661625Y-106241000D02*
X87486625Y-105416000D01*
%TD*%
%TA.AperFunction,Conductor*%
%TO.N,GND*%
G36*
X87204359Y-123277955D02*
G01*
X87146835Y-123390852D01*
X87127014Y-123516000D01*
X87146835Y-123641148D01*
X87204359Y-123754045D01*
X87216314Y-123766000D01*
X85307686Y-123766000D01*
X85319641Y-123754045D01*
X85377165Y-123641148D01*
X85396986Y-123516000D01*
X85377165Y-123390852D01*
X85319641Y-123277955D01*
X85307686Y-123266000D01*
X87216314Y-123266000D01*
X87204359Y-123277955D01*
G37*
%TD.AperFunction*%
%TA.AperFunction,Conductor*%
G36*
X89744359Y-123277955D02*
G01*
X89686835Y-123390852D01*
X89667014Y-123516000D01*
X89686835Y-123641148D01*
X89744359Y-123754045D01*
X89756314Y-123766000D01*
X87847686Y-123766000D01*
X87859641Y-123754045D01*
X87917165Y-123641148D01*
X87936986Y-123516000D01*
X87917165Y-123390852D01*
X87859641Y-123277955D01*
X87847686Y-123266000D01*
X89756314Y-123266000D01*
X89744359Y-123277955D01*
G37*
%TD.AperFunction*%
%TA.AperFunction,Conductor*%
G36*
X92284359Y-123277955D02*
G01*
X92226835Y-123390852D01*
X92207014Y-123516000D01*
X92226835Y-123641148D01*
X92284359Y-123754045D01*
X92296314Y-123766000D01*
X90387686Y-123766000D01*
X90399641Y-123754045D01*
X90457165Y-123641148D01*
X90476986Y-123516000D01*
X90457165Y-123390852D01*
X90399641Y-123277955D01*
X90387686Y-123266000D01*
X92296314Y-123266000D01*
X92284359Y-123277955D01*
G37*
%TD.AperFunction*%
%TA.AperFunction,Conductor*%
G36*
X94824359Y-123277955D02*
G01*
X94766835Y-123390852D01*
X94747014Y-123516000D01*
X94766835Y-123641148D01*
X94824359Y-123754045D01*
X94836314Y-123766000D01*
X92927686Y-123766000D01*
X92939641Y-123754045D01*
X92997165Y-123641148D01*
X93016986Y-123516000D01*
X92997165Y-123390852D01*
X92939641Y-123277955D01*
X92927686Y-123266000D01*
X94836314Y-123266000D01*
X94824359Y-123277955D01*
G37*
%TD.AperFunction*%
%TA.AperFunction,Conductor*%
G36*
X97364359Y-123277955D02*
G01*
X97306835Y-123390852D01*
X97287014Y-123516000D01*
X97306835Y-123641148D01*
X97364359Y-123754045D01*
X97376314Y-123766000D01*
X95467686Y-123766000D01*
X95479641Y-123754045D01*
X95537165Y-123641148D01*
X95556986Y-123516000D01*
X95537165Y-123390852D01*
X95479641Y-123277955D01*
X95467686Y-123266000D01*
X97376314Y-123266000D01*
X97364359Y-123277955D01*
G37*
%TD.AperFunction*%
%TA.AperFunction,Conductor*%
G36*
X92161273Y-106761057D02*
G01*
X92211763Y-106791667D01*
X96762181Y-111342085D01*
X96795666Y-111403408D01*
X96798500Y-111429766D01*
X96798500Y-112007640D01*
X96778815Y-112074679D01*
X96762181Y-112095321D01*
X96685806Y-112171695D01*
X96554476Y-112359251D01*
X96534382Y-112402345D01*
X96488209Y-112454784D01*
X96421016Y-112473936D01*
X96354135Y-112453720D01*
X96309618Y-112402345D01*
X96289523Y-112359251D01*
X96289522Y-112359251D01*
X96158198Y-112171700D01*
X95996300Y-112009802D01*
X95808749Y-111878477D01*
X95758499Y-111855045D01*
X95601249Y-111781718D01*
X95601238Y-111781714D01*
X95380089Y-111722457D01*
X95380081Y-111722456D01*
X95152002Y-111702502D01*
X95151998Y-111702502D01*
X94923918Y-111722456D01*
X94923910Y-111722457D01*
X94702761Y-111781714D01*
X94702750Y-111781718D01*
X94495254Y-111878475D01*
X94495252Y-111878476D01*
X94495249Y-111878477D01*
X94495251Y-111878477D01*
X94307700Y-112009802D01*
X94307698Y-112009803D01*
X94307695Y-112009806D01*
X94145806Y-112171695D01*
X94014476Y-112359251D01*
X93994382Y-112402345D01*
X93948209Y-112454784D01*
X93881016Y-112473936D01*
X93814135Y-112453720D01*
X93769618Y-112402345D01*
X93749523Y-112359251D01*
X93749522Y-112359250D01*
X93618198Y-112171700D01*
X93456300Y-112009802D01*
X93268749Y-111878477D01*
X93218499Y-111855045D01*
X93061249Y-111781718D01*
X93061238Y-111781714D01*
X92840089Y-111722457D01*
X92840081Y-111722456D01*
X92612002Y-111702502D01*
X92611998Y-111702502D01*
X92383918Y-111722456D01*
X92383907Y-111722458D01*
X92319343Y-111739758D01*
X92249493Y-111738095D01*
X92199569Y-111707664D01*
X92006444Y-111514539D01*
X91972959Y-111453216D01*
X91970125Y-111426858D01*
X91970125Y-106912620D01*
X91989810Y-106845581D01*
X92001973Y-106829650D01*
X92031933Y-106796375D01*
X92091416Y-106759728D01*
X92161273Y-106761057D01*
G37*
%TD.AperFunction*%
%TA.AperFunction,Conductor*%
G36*
X102804359Y-101077955D02*
G01*
X102746835Y-101190852D01*
X102727014Y-101316000D01*
X102746835Y-101441148D01*
X102804359Y-101554045D01*
X102816314Y-101566000D01*
X100907686Y-101566000D01*
X100919641Y-101554045D01*
X100977165Y-101441148D01*
X100996986Y-101316000D01*
X100977165Y-101190852D01*
X100919641Y-101077955D01*
X100907686Y-101066000D01*
X102816314Y-101066000D01*
X102804359Y-101077955D01*
G37*
%TD.AperFunction*%
%TA.AperFunction,Conductor*%
G36*
X105344359Y-101077955D02*
G01*
X105286835Y-101190852D01*
X105267014Y-101316000D01*
X105286835Y-101441148D01*
X105344359Y-101554045D01*
X105356314Y-101566000D01*
X103447686Y-101566000D01*
X103459641Y-101554045D01*
X103517165Y-101441148D01*
X103536986Y-101316000D01*
X103517165Y-101190852D01*
X103459641Y-101077955D01*
X103447686Y-101066000D01*
X105356314Y-101066000D01*
X105344359Y-101077955D01*
G37*
%TD.AperFunction*%
%TA.AperFunction,Conductor*%
G36*
X112974539Y-98736185D02*
G01*
X113020294Y-98788989D01*
X113031500Y-98840500D01*
X113031500Y-101458012D01*
X113011815Y-101525051D01*
X112959011Y-101570806D01*
X112889853Y-101580750D01*
X112826297Y-101551725D01*
X112794425Y-101508903D01*
X112671463Y-101235694D01*
X112671454Y-101235678D01*
X112499343Y-100950969D01*
X112346136Y-100755416D01*
X111346925Y-101754626D01*
X111270110Y-101644922D01*
X111103078Y-101477890D01*
X110993372Y-101401073D01*
X111992582Y-100401862D01*
X111992582Y-100401861D01*
X111797030Y-100248656D01*
X111512321Y-100076545D01*
X111512319Y-100076543D01*
X111208943Y-99940005D01*
X111208928Y-99939999D01*
X110891329Y-99841032D01*
X110564076Y-99781060D01*
X110231999Y-99760974D01*
X109899923Y-99781060D01*
X109572670Y-99841032D01*
X109255071Y-99939999D01*
X109255056Y-99940005D01*
X108951680Y-100076543D01*
X108951678Y-100076545D01*
X108666968Y-100248657D01*
X108666960Y-100248662D01*
X108471416Y-100401861D01*
X108471416Y-100401862D01*
X109470627Y-101401073D01*
X109360922Y-101477890D01*
X109193890Y-101644922D01*
X109117073Y-101754627D01*
X108117862Y-100755416D01*
X108117861Y-100755416D01*
X107964662Y-100950960D01*
X107964657Y-100950968D01*
X107792545Y-101235678D01*
X107792543Y-101235680D01*
X107656005Y-101539056D01*
X107655999Y-101539071D01*
X107557032Y-101856670D01*
X107497060Y-102183923D01*
X107476974Y-102516000D01*
X107497060Y-102848076D01*
X107557032Y-103175329D01*
X107655999Y-103492928D01*
X107656005Y-103492943D01*
X107792543Y-103796319D01*
X107792545Y-103796321D01*
X107964656Y-104081030D01*
X108117862Y-104276582D01*
X109117073Y-103277372D01*
X109193890Y-103387078D01*
X109360922Y-103554110D01*
X109470626Y-103630925D01*
X108471416Y-104630136D01*
X108471416Y-104630137D01*
X108666969Y-104783343D01*
X108951678Y-104955454D01*
X108951680Y-104955456D01*
X109255056Y-105091994D01*
X109255071Y-105092000D01*
X109572670Y-105190967D01*
X109899923Y-105250939D01*
X110231999Y-105271025D01*
X110564076Y-105250939D01*
X110891329Y-105190967D01*
X111208928Y-105092000D01*
X111208943Y-105091994D01*
X111512319Y-104955456D01*
X111512321Y-104955454D01*
X111797031Y-104783342D01*
X111797039Y-104783336D01*
X111992582Y-104630137D01*
X111992582Y-104630136D01*
X110993373Y-103630926D01*
X111103078Y-103554110D01*
X111270110Y-103387078D01*
X111346926Y-103277372D01*
X112346136Y-104276582D01*
X112346137Y-104276582D01*
X112499336Y-104081039D01*
X112499342Y-104081031D01*
X112671454Y-103796321D01*
X112671456Y-103796319D01*
X112794424Y-103523096D01*
X112839889Y-103470041D01*
X112906819Y-103449989D01*
X112973966Y-103469305D01*
X113020010Y-103521857D01*
X113031500Y-103573987D01*
X113031500Y-122058012D01*
X113011815Y-122125051D01*
X112959011Y-122170806D01*
X112889853Y-122180750D01*
X112826297Y-122151725D01*
X112794425Y-122108903D01*
X112671463Y-121835694D01*
X112671454Y-121835678D01*
X112499343Y-121550969D01*
X112346136Y-121355416D01*
X111346925Y-122354626D01*
X111270110Y-122244922D01*
X111103078Y-122077890D01*
X110993372Y-122001073D01*
X111992582Y-121001862D01*
X111992582Y-121001861D01*
X111797030Y-120848656D01*
X111512321Y-120676545D01*
X111512319Y-120676543D01*
X111208943Y-120540005D01*
X111208928Y-120539999D01*
X110891329Y-120441032D01*
X110564076Y-120381060D01*
X110231999Y-120360974D01*
X109899923Y-120381060D01*
X109572670Y-120441032D01*
X109255071Y-120539999D01*
X109255056Y-120540005D01*
X108951680Y-120676543D01*
X108951678Y-120676545D01*
X108666968Y-120848657D01*
X108666960Y-120848662D01*
X108471416Y-121001861D01*
X108471416Y-121001862D01*
X109470627Y-122001073D01*
X109360922Y-122077890D01*
X109193890Y-122244922D01*
X109117073Y-122354627D01*
X108117862Y-121355416D01*
X108117861Y-121355416D01*
X107964662Y-121550960D01*
X107964657Y-121550968D01*
X107792545Y-121835678D01*
X107792543Y-121835680D01*
X107656005Y-122139056D01*
X107655999Y-122139071D01*
X107557032Y-122456670D01*
X107497060Y-122783923D01*
X107476974Y-123116000D01*
X107497060Y-123448076D01*
X107557032Y-123775329D01*
X107655999Y-124092928D01*
X107656005Y-124092943D01*
X107792543Y-124396319D01*
X107792545Y-124396321D01*
X107964656Y-124681030D01*
X108117862Y-124876582D01*
X109117073Y-123877372D01*
X109193890Y-123987078D01*
X109360922Y-124154110D01*
X109470626Y-124230925D01*
X108471416Y-125230136D01*
X108471416Y-125230137D01*
X108666969Y-125383343D01*
X108951678Y-125555454D01*
X108951680Y-125555456D01*
X109255056Y-125691994D01*
X109255071Y-125692000D01*
X109572670Y-125790967D01*
X109899923Y-125850939D01*
X110231999Y-125871025D01*
X110564076Y-125850939D01*
X110891329Y-125790967D01*
X111208928Y-125692000D01*
X111208943Y-125691994D01*
X111512319Y-125555456D01*
X111512321Y-125555454D01*
X111797031Y-125383342D01*
X111797039Y-125383336D01*
X111992582Y-125230137D01*
X111992582Y-125230136D01*
X110993373Y-124230926D01*
X111103078Y-124154110D01*
X111270110Y-123987078D01*
X111346926Y-123877372D01*
X112346136Y-124876582D01*
X112346137Y-124876582D01*
X112499336Y-124681039D01*
X112499342Y-124681031D01*
X112671454Y-124396321D01*
X112671456Y-124396319D01*
X112794424Y-124123096D01*
X112839889Y-124070041D01*
X112906819Y-124049989D01*
X112973966Y-124069305D01*
X113020010Y-124121857D01*
X113031500Y-124173987D01*
X113031500Y-126191500D01*
X113011815Y-126258539D01*
X112959011Y-126304294D01*
X112907500Y-126315500D01*
X79256500Y-126315500D01*
X79189461Y-126295815D01*
X79143706Y-126243011D01*
X79132500Y-126191500D01*
X79132500Y-124363844D01*
X83692000Y-124363844D01*
X83698401Y-124423372D01*
X83698403Y-124423379D01*
X83748645Y-124558086D01*
X83748649Y-124558093D01*
X83834809Y-124673187D01*
X83834812Y-124673190D01*
X83949906Y-124759350D01*
X83949913Y-124759354D01*
X84084620Y-124809596D01*
X84084627Y-124809598D01*
X84144155Y-124815999D01*
X84144172Y-124816000D01*
X84742000Y-124816000D01*
X84742000Y-123831686D01*
X84753955Y-123843641D01*
X84866852Y-123901165D01*
X84960519Y-123916000D01*
X85023481Y-123916000D01*
X85117148Y-123901165D01*
X85230045Y-123843641D01*
X85242000Y-123831685D01*
X85242000Y-124816000D01*
X85839828Y-124816000D01*
X85839844Y-124815999D01*
X85899372Y-124809598D01*
X85899379Y-124809596D01*
X86034086Y-124759354D01*
X86034093Y-124759350D01*
X86149187Y-124673190D01*
X86149190Y-124673187D01*
X86235350Y-124558093D01*
X86235354Y-124558086D01*
X86285596Y-124423379D01*
X86289505Y-124387024D01*
X86316243Y-124322473D01*
X86373635Y-124282624D01*
X86443460Y-124280129D01*
X86503549Y-124315781D01*
X86514369Y-124329153D01*
X86532340Y-124354818D01*
X86693179Y-124515657D01*
X86879517Y-124646134D01*
X87085673Y-124742265D01*
X87085682Y-124742269D01*
X87281999Y-124794872D01*
X87282000Y-124794871D01*
X87282000Y-123831686D01*
X87293955Y-123843641D01*
X87406852Y-123901165D01*
X87500519Y-123916000D01*
X87563481Y-123916000D01*
X87657148Y-123901165D01*
X87770045Y-123843641D01*
X87782000Y-123831686D01*
X87782000Y-124794872D01*
X87978317Y-124742269D01*
X87978326Y-124742265D01*
X88184482Y-124646134D01*
X88370820Y-124515657D01*
X88531657Y-124354820D01*
X88662134Y-124168481D01*
X88662135Y-124168479D01*
X88689618Y-124109543D01*
X88735790Y-124057103D01*
X88802983Y-124037951D01*
X88869864Y-124058166D01*
X88914382Y-124109543D01*
X88941864Y-124168479D01*
X88941865Y-124168481D01*
X89072342Y-124354820D01*
X89233179Y-124515657D01*
X89419517Y-124646134D01*
X89625673Y-124742265D01*
X89625682Y-124742269D01*
X89821999Y-124794872D01*
X89822000Y-124794871D01*
X89822000Y-123831686D01*
X89833955Y-123843641D01*
X89946852Y-123901165D01*
X90040519Y-123916000D01*
X90103481Y-123916000D01*
X90197148Y-123901165D01*
X90310045Y-123843641D01*
X90322000Y-123831686D01*
X90322000Y-124794872D01*
X90518317Y-124742269D01*
X90518326Y-124742265D01*
X90724482Y-124646134D01*
X90910820Y-124515657D01*
X91071657Y-124354820D01*
X91202134Y-124168481D01*
X91202135Y-124168479D01*
X91229618Y-124109543D01*
X91275790Y-124057103D01*
X91342983Y-124037951D01*
X91409864Y-124058166D01*
X91454382Y-124109543D01*
X91481864Y-124168479D01*
X91481865Y-124168481D01*
X91612342Y-124354820D01*
X91773179Y-124515657D01*
X91959517Y-124646134D01*
X92165673Y-124742265D01*
X92165682Y-124742269D01*
X92361999Y-124794872D01*
X92362000Y-124794871D01*
X92362000Y-123831686D01*
X92373955Y-123843641D01*
X92486852Y-123901165D01*
X92580519Y-123916000D01*
X92643481Y-123916000D01*
X92737148Y-123901165D01*
X92850045Y-123843641D01*
X92862000Y-123831686D01*
X92862000Y-124794872D01*
X93058317Y-124742269D01*
X93058326Y-124742265D01*
X93264482Y-124646134D01*
X93450820Y-124515657D01*
X93611657Y-124354820D01*
X93742134Y-124168481D01*
X93742135Y-124168479D01*
X93769618Y-124109543D01*
X93815790Y-124057103D01*
X93882983Y-124037951D01*
X93949864Y-124058166D01*
X93994382Y-124109543D01*
X94021864Y-124168479D01*
X94021865Y-124168481D01*
X94152342Y-124354820D01*
X94313179Y-124515657D01*
X94499517Y-124646134D01*
X94705673Y-124742265D01*
X94705682Y-124742269D01*
X94901999Y-124794872D01*
X94902000Y-124794871D01*
X94902000Y-123831686D01*
X94913955Y-123843641D01*
X95026852Y-123901165D01*
X95120519Y-123916000D01*
X95183481Y-123916000D01*
X95277148Y-123901165D01*
X95390045Y-123843641D01*
X95402000Y-123831685D01*
X95402000Y-124794872D01*
X95598317Y-124742269D01*
X95598326Y-124742265D01*
X95804482Y-124646134D01*
X95990820Y-124515657D01*
X96151657Y-124354820D01*
X96282134Y-124168481D01*
X96282135Y-124168479D01*
X96309618Y-124109543D01*
X96355790Y-124057103D01*
X96422983Y-124037951D01*
X96489864Y-124058166D01*
X96534382Y-124109543D01*
X96561864Y-124168479D01*
X96561865Y-124168481D01*
X96692342Y-124354820D01*
X96853179Y-124515657D01*
X97039517Y-124646134D01*
X97245673Y-124742265D01*
X97245682Y-124742269D01*
X97441999Y-124794872D01*
X97441999Y-124794871D01*
X97441999Y-123831685D01*
X97453955Y-123843641D01*
X97566852Y-123901165D01*
X97660519Y-123916000D01*
X97723481Y-123916000D01*
X97817148Y-123901165D01*
X97930045Y-123843641D01*
X97942000Y-123831686D01*
X97942000Y-124794872D01*
X98138317Y-124742269D01*
X98138326Y-124742265D01*
X98344482Y-124646134D01*
X98530820Y-124515657D01*
X98691657Y-124354820D01*
X98788858Y-124216005D01*
X102826858Y-124216005D01*
X102847385Y-124463729D01*
X102847387Y-124463738D01*
X102908412Y-124704717D01*
X103008266Y-124932364D01*
X103108564Y-125085882D01*
X103848923Y-124345523D01*
X103872507Y-124425844D01*
X103950239Y-124546798D01*
X104058900Y-124640952D01*
X104189685Y-124700680D01*
X104199466Y-124702086D01*
X103461942Y-125439609D01*
X103508768Y-125476055D01*
X103508770Y-125476056D01*
X103727385Y-125594364D01*
X103727396Y-125594369D01*
X103962506Y-125675083D01*
X104207707Y-125716000D01*
X104456293Y-125716000D01*
X104701493Y-125675083D01*
X104936603Y-125594369D01*
X104936614Y-125594364D01*
X105155228Y-125476057D01*
X105155231Y-125476055D01*
X105202056Y-125439609D01*
X104464533Y-124702086D01*
X104474315Y-124700680D01*
X104605100Y-124640952D01*
X104713761Y-124546798D01*
X104791493Y-124425844D01*
X104815076Y-124345524D01*
X105555434Y-125085882D01*
X105655731Y-124932369D01*
X105755587Y-124704717D01*
X105816612Y-124463738D01*
X105816614Y-124463729D01*
X105837141Y-124216005D01*
X105837141Y-124215994D01*
X105816614Y-123968270D01*
X105816612Y-123968261D01*
X105755587Y-123727282D01*
X105655731Y-123499630D01*
X105555434Y-123346116D01*
X104815076Y-124086475D01*
X104791493Y-124006156D01*
X104713761Y-123885202D01*
X104605100Y-123791048D01*
X104474315Y-123731320D01*
X104464534Y-123729913D01*
X105202057Y-122992390D01*
X105202056Y-122992389D01*
X105155229Y-122955943D01*
X104936614Y-122837635D01*
X104936603Y-122837630D01*
X104701493Y-122756916D01*
X104456293Y-122716000D01*
X104207707Y-122716000D01*
X103962506Y-122756916D01*
X103727396Y-122837630D01*
X103727390Y-122837632D01*
X103508761Y-122955949D01*
X103461942Y-122992388D01*
X103461942Y-122992390D01*
X104199466Y-123729913D01*
X104189685Y-123731320D01*
X104058900Y-123791048D01*
X103950239Y-123885202D01*
X103872507Y-124006156D01*
X103848923Y-124086475D01*
X103108564Y-123346116D01*
X103008267Y-123499632D01*
X102908412Y-123727282D01*
X102847387Y-123968261D01*
X102847385Y-123968270D01*
X102826858Y-124215994D01*
X102826858Y-124216005D01*
X98788858Y-124216005D01*
X98822134Y-124168482D01*
X98918265Y-123962326D01*
X98918269Y-123962317D01*
X98970872Y-123766000D01*
X98007686Y-123766000D01*
X98019641Y-123754045D01*
X98077165Y-123641148D01*
X98096986Y-123516000D01*
X98077165Y-123390852D01*
X98019641Y-123277955D01*
X98007686Y-123266000D01*
X98970872Y-123266000D01*
X98970872Y-123265999D01*
X98918269Y-123069682D01*
X98918265Y-123069673D01*
X98822134Y-122863517D01*
X98691657Y-122677179D01*
X98530820Y-122516342D01*
X98344482Y-122385865D01*
X98138328Y-122289734D01*
X97942000Y-122237127D01*
X97942000Y-123200314D01*
X97930045Y-123188359D01*
X97817148Y-123130835D01*
X97723481Y-123116000D01*
X97660519Y-123116000D01*
X97566852Y-123130835D01*
X97453955Y-123188359D01*
X97442000Y-123200314D01*
X97442000Y-122237127D01*
X97245671Y-122289734D01*
X97039517Y-122385865D01*
X96853179Y-122516342D01*
X96692342Y-122677179D01*
X96561865Y-122863517D01*
X96534382Y-122922457D01*
X96488210Y-122974896D01*
X96421016Y-122994048D01*
X96354135Y-122973832D01*
X96309618Y-122922457D01*
X96282134Y-122863517D01*
X96151657Y-122677179D01*
X95990820Y-122516342D01*
X95804482Y-122385865D01*
X95598328Y-122289734D01*
X95402000Y-122237127D01*
X95402000Y-123200314D01*
X95390045Y-123188359D01*
X95277148Y-123130835D01*
X95183481Y-123116000D01*
X95120519Y-123116000D01*
X95026852Y-123130835D01*
X94913955Y-123188359D01*
X94902000Y-123200313D01*
X94902000Y-122237127D01*
X94705671Y-122289734D01*
X94499517Y-122385865D01*
X94313179Y-122516342D01*
X94152342Y-122677179D01*
X94021865Y-122863517D01*
X93994382Y-122922457D01*
X93948210Y-122974896D01*
X93881016Y-122994048D01*
X93814135Y-122973832D01*
X93769618Y-122922457D01*
X93742134Y-122863517D01*
X93611657Y-122677179D01*
X93450820Y-122516342D01*
X93264482Y-122385865D01*
X93058328Y-122289734D01*
X92862000Y-122237127D01*
X92862000Y-123200314D01*
X92850045Y-123188359D01*
X92737148Y-123130835D01*
X92643481Y-123116000D01*
X92580519Y-123116000D01*
X92486852Y-123130835D01*
X92373955Y-123188359D01*
X92362000Y-123200314D01*
X92362000Y-122237127D01*
X92165671Y-122289734D01*
X91959517Y-122385865D01*
X91773179Y-122516342D01*
X91612342Y-122677179D01*
X91481865Y-122863517D01*
X91454382Y-122922457D01*
X91408210Y-122974896D01*
X91341016Y-122994048D01*
X91274135Y-122973832D01*
X91229618Y-122922457D01*
X91202134Y-122863517D01*
X91071657Y-122677179D01*
X90910820Y-122516342D01*
X90724482Y-122385865D01*
X90518328Y-122289734D01*
X90321999Y-122237127D01*
X90321999Y-123200313D01*
X90310045Y-123188359D01*
X90197148Y-123130835D01*
X90103481Y-123116000D01*
X90040519Y-123116000D01*
X89946852Y-123130835D01*
X89833955Y-123188359D01*
X89822000Y-123200314D01*
X89822000Y-122237127D01*
X89625671Y-122289734D01*
X89419517Y-122385865D01*
X89233179Y-122516342D01*
X89072342Y-122677179D01*
X88941865Y-122863517D01*
X88914382Y-122922457D01*
X88868210Y-122974896D01*
X88801016Y-122994048D01*
X88734135Y-122973832D01*
X88689618Y-122922457D01*
X88662134Y-122863517D01*
X88531657Y-122677179D01*
X88370820Y-122516342D01*
X88184482Y-122385865D01*
X87978328Y-122289734D01*
X87782000Y-122237127D01*
X87782000Y-123200314D01*
X87770045Y-123188359D01*
X87657148Y-123130835D01*
X87563481Y-123116000D01*
X87500519Y-123116000D01*
X87406852Y-123130835D01*
X87293955Y-123188359D01*
X87282000Y-123200314D01*
X87282000Y-122237127D01*
X87085671Y-122289734D01*
X86879517Y-122385865D01*
X86693179Y-122516342D01*
X86532339Y-122677182D01*
X86514368Y-122702847D01*
X86459790Y-122746471D01*
X86390291Y-122753662D01*
X86327937Y-122722138D01*
X86292525Y-122661907D01*
X86289505Y-122644975D01*
X86285596Y-122608620D01*
X86235354Y-122473913D01*
X86235350Y-122473906D01*
X86149190Y-122358812D01*
X86149187Y-122358809D01*
X86034093Y-122272649D01*
X86034086Y-122272645D01*
X85899379Y-122222403D01*
X85899372Y-122222401D01*
X85839844Y-122216000D01*
X85242000Y-122216000D01*
X85242000Y-123200314D01*
X85230045Y-123188359D01*
X85117148Y-123130835D01*
X85023481Y-123116000D01*
X84960519Y-123116000D01*
X84866852Y-123130835D01*
X84753955Y-123188359D01*
X84742000Y-123200314D01*
X84742000Y-122216000D01*
X84144155Y-122216000D01*
X84084627Y-122222401D01*
X84084620Y-122222403D01*
X83949913Y-122272645D01*
X83949906Y-122272649D01*
X83834812Y-122358809D01*
X83834809Y-122358812D01*
X83748649Y-122473906D01*
X83748645Y-122473913D01*
X83698403Y-122608620D01*
X83698401Y-122608627D01*
X83692000Y-122668155D01*
X83692000Y-123266000D01*
X84676314Y-123266000D01*
X84664359Y-123277955D01*
X84606835Y-123390852D01*
X84587014Y-123516000D01*
X84606835Y-123641148D01*
X84664359Y-123754045D01*
X84676314Y-123766000D01*
X83692000Y-123766000D01*
X83692000Y-124363844D01*
X79132500Y-124363844D01*
X79132500Y-113864654D01*
X81143500Y-113864654D01*
X81150011Y-113925202D01*
X81150011Y-113925204D01*
X81186189Y-114022198D01*
X81201111Y-114062204D01*
X81288739Y-114179261D01*
X81405796Y-114266889D01*
X81542799Y-114317989D01*
X81570050Y-114320918D01*
X81603345Y-114324499D01*
X81603362Y-114324500D01*
X83300638Y-114324500D01*
X83300654Y-114324499D01*
X83327692Y-114321591D01*
X83361201Y-114317989D01*
X83498204Y-114266889D01*
X83615261Y-114179261D01*
X83702889Y-114062204D01*
X83753989Y-113925201D01*
X83755569Y-113910500D01*
X83782304Y-113845952D01*
X83839695Y-113806102D01*
X83909521Y-113803606D01*
X83969611Y-113839257D01*
X83980428Y-113852626D01*
X83985802Y-113860300D01*
X84147700Y-114022198D01*
X84335251Y-114153523D01*
X84390445Y-114179260D01*
X84542750Y-114250281D01*
X84542752Y-114250281D01*
X84542757Y-114250284D01*
X84763913Y-114309543D01*
X84926832Y-114323796D01*
X84991998Y-114329498D01*
X84992000Y-114329498D01*
X84992002Y-114329498D01*
X85049139Y-114324499D01*
X85220087Y-114309543D01*
X85441243Y-114250284D01*
X85648749Y-114153523D01*
X85836300Y-114022198D01*
X85998198Y-113860300D01*
X86129523Y-113672749D01*
X86149617Y-113629655D01*
X86195790Y-113577215D01*
X86262983Y-113558063D01*
X86329864Y-113578278D01*
X86374382Y-113629655D01*
X86394477Y-113672749D01*
X86525802Y-113860300D01*
X86687700Y-114022198D01*
X86875251Y-114153523D01*
X86930445Y-114179260D01*
X87082750Y-114250281D01*
X87082752Y-114250281D01*
X87082757Y-114250284D01*
X87303913Y-114309543D01*
X87466832Y-114323796D01*
X87531998Y-114329498D01*
X87532000Y-114329498D01*
X87532002Y-114329498D01*
X87589139Y-114324499D01*
X87760087Y-114309543D01*
X87981243Y-114250284D01*
X88022096Y-114231233D01*
X88091172Y-114220742D01*
X88154956Y-114249261D01*
X88193196Y-114307738D01*
X88198500Y-114343616D01*
X88198500Y-114568383D01*
X88178815Y-114635422D01*
X88126011Y-114681177D01*
X88056853Y-114691121D01*
X88022097Y-114680766D01*
X87981245Y-114661717D01*
X87981238Y-114661714D01*
X87760089Y-114602457D01*
X87760081Y-114602456D01*
X87532002Y-114582502D01*
X87531998Y-114582502D01*
X87303918Y-114602456D01*
X87303910Y-114602457D01*
X87082761Y-114661714D01*
X87082750Y-114661718D01*
X86875254Y-114758475D01*
X86875252Y-114758476D01*
X86875249Y-114758477D01*
X86875251Y-114758477D01*
X86687700Y-114889802D01*
X86687698Y-114889803D01*
X86687695Y-114889806D01*
X86525806Y-115051695D01*
X86394476Y-115239251D01*
X86374382Y-115282345D01*
X86328209Y-115334784D01*
X86261016Y-115353936D01*
X86194135Y-115333720D01*
X86149618Y-115282345D01*
X86129523Y-115239251D01*
X85998198Y-115051700D01*
X85836300Y-114889802D01*
X85648749Y-114758477D01*
X85598499Y-114735045D01*
X85441249Y-114661718D01*
X85441238Y-114661714D01*
X85220089Y-114602457D01*
X85220081Y-114602456D01*
X84992002Y-114582502D01*
X84991998Y-114582502D01*
X84763918Y-114602456D01*
X84763910Y-114602457D01*
X84542761Y-114661714D01*
X84542750Y-114661718D01*
X84335254Y-114758475D01*
X84335252Y-114758476D01*
X84335249Y-114758477D01*
X84335251Y-114758477D01*
X84147700Y-114889802D01*
X84147698Y-114889803D01*
X84147695Y-114889806D01*
X83985806Y-115051695D01*
X83854476Y-115239252D01*
X83854475Y-115239254D01*
X83757718Y-115446750D01*
X83757714Y-115446761D01*
X83698457Y-115667910D01*
X83698456Y-115667918D01*
X83678502Y-115895998D01*
X83678502Y-115896001D01*
X83698456Y-116124081D01*
X83698457Y-116124089D01*
X83757714Y-116345238D01*
X83757718Y-116345249D01*
X83832565Y-116505759D01*
X83854477Y-116552749D01*
X83985802Y-116740300D01*
X84147700Y-116902198D01*
X84335251Y-117033523D01*
X84377228Y-117053097D01*
X84542750Y-117130281D01*
X84542752Y-117130281D01*
X84542757Y-117130284D01*
X84763913Y-117189543D01*
X84926832Y-117203796D01*
X84991998Y-117209498D01*
X84992000Y-117209498D01*
X84992002Y-117209498D01*
X85051013Y-117204335D01*
X85220087Y-117189543D01*
X85441243Y-117130284D01*
X85648749Y-117033523D01*
X85836300Y-116902198D01*
X85998198Y-116740300D01*
X86129523Y-116552749D01*
X86149617Y-116509655D01*
X86195790Y-116457215D01*
X86262983Y-116438063D01*
X86329864Y-116458278D01*
X86374382Y-116509655D01*
X86394477Y-116552749D01*
X86525802Y-116740300D01*
X86687700Y-116902198D01*
X86875251Y-117033523D01*
X86917228Y-117053097D01*
X87082750Y-117130281D01*
X87082752Y-117130281D01*
X87082757Y-117130284D01*
X87303913Y-117189543D01*
X87466832Y-117203796D01*
X87531998Y-117209498D01*
X87532000Y-117209498D01*
X87532002Y-117209498D01*
X87591013Y-117204335D01*
X87760087Y-117189543D01*
X87981243Y-117130284D01*
X88188749Y-117033523D01*
X88259303Y-116984119D01*
X88325507Y-116961791D01*
X88393275Y-116978800D01*
X88418108Y-116998012D01*
X89024910Y-117604814D01*
X89034816Y-117617178D01*
X89035026Y-117617005D01*
X89040001Y-117623019D01*
X89091094Y-117670999D01*
X89112225Y-117692129D01*
X89112230Y-117692134D01*
X89117802Y-117696456D01*
X89122242Y-117700249D01*
X89156678Y-117732586D01*
X89174567Y-117742420D01*
X89190833Y-117753104D01*
X89206959Y-117765613D01*
X89250298Y-117784367D01*
X89255545Y-117786937D01*
X89296940Y-117809695D01*
X89316718Y-117814773D01*
X89335121Y-117821074D01*
X89353852Y-117829180D01*
X89353853Y-117829180D01*
X89353855Y-117829181D01*
X89381250Y-117833519D01*
X89400497Y-117836568D01*
X89406213Y-117837751D01*
X89451970Y-117849500D01*
X89472390Y-117849500D01*
X89491789Y-117851027D01*
X89511941Y-117854218D01*
X89511942Y-117854219D01*
X89511942Y-117854218D01*
X89511943Y-117854219D01*
X89558958Y-117849775D01*
X89564796Y-117849500D01*
X93748366Y-117849500D01*
X93764113Y-117851238D01*
X93764139Y-117850968D01*
X93771905Y-117851701D01*
X93771909Y-117851702D01*
X93841958Y-117849500D01*
X93871856Y-117849500D01*
X93871857Y-117849500D01*
X93873222Y-117849327D01*
X93878862Y-117848614D01*
X93884685Y-117848156D01*
X93910708Y-117847338D01*
X93931890Y-117846673D01*
X93941681Y-117843827D01*
X93951481Y-117840980D01*
X93970538Y-117837032D01*
X93990797Y-117834474D01*
X94034721Y-117817082D01*
X94040221Y-117815199D01*
X94085593Y-117802018D01*
X94103165Y-117791625D01*
X94120632Y-117783068D01*
X94139617Y-117775552D01*
X94177826Y-117747790D01*
X94182704Y-117744585D01*
X94223362Y-117720542D01*
X94237802Y-117706100D01*
X94252592Y-117693470D01*
X94269107Y-117681472D01*
X94299222Y-117645067D01*
X94303126Y-117640776D01*
X94739569Y-117204333D01*
X94800891Y-117170850D01*
X94859341Y-117172240D01*
X94923913Y-117189543D01*
X95086832Y-117203796D01*
X95151998Y-117209498D01*
X95152000Y-117209498D01*
X95152002Y-117209498D01*
X95211013Y-117204335D01*
X95380087Y-117189543D01*
X95601243Y-117130284D01*
X95808749Y-117033523D01*
X95996300Y-116902198D01*
X96158198Y-116740300D01*
X96289523Y-116552749D01*
X96309617Y-116509655D01*
X96355790Y-116457215D01*
X96422983Y-116438063D01*
X96489864Y-116458278D01*
X96534382Y-116509655D01*
X96554477Y-116552749D01*
X96685802Y-116740300D01*
X96847700Y-116902198D01*
X97035251Y-117033523D01*
X97077228Y-117053097D01*
X97242750Y-117130281D01*
X97242752Y-117130281D01*
X97242757Y-117130284D01*
X97463913Y-117189543D01*
X97626832Y-117203796D01*
X97691998Y-117209498D01*
X97692000Y-117209498D01*
X97692002Y-117209498D01*
X97751013Y-117204335D01*
X97920087Y-117189543D01*
X98141243Y-117130284D01*
X98348749Y-117033523D01*
X98536300Y-116902198D01*
X98698198Y-116740300D01*
X98829523Y-116552749D01*
X98926284Y-116345243D01*
X98985543Y-116124087D01*
X99005498Y-115896000D01*
X98985543Y-115667913D01*
X98926284Y-115446757D01*
X98829523Y-115239251D01*
X98698198Y-115051700D01*
X98536300Y-114889802D01*
X98348749Y-114758477D01*
X98298499Y-114735045D01*
X98141249Y-114661718D01*
X98141238Y-114661714D01*
X97920089Y-114602457D01*
X97920081Y-114602456D01*
X97692002Y-114582502D01*
X97691998Y-114582502D01*
X97463918Y-114602456D01*
X97463910Y-114602457D01*
X97242761Y-114661714D01*
X97242750Y-114661718D01*
X97035254Y-114758475D01*
X97035252Y-114758476D01*
X97035249Y-114758477D01*
X97035251Y-114758477D01*
X96847700Y-114889802D01*
X96847698Y-114889803D01*
X96847695Y-114889806D01*
X96685806Y-115051695D01*
X96554476Y-115239251D01*
X96534382Y-115282345D01*
X96488209Y-115334784D01*
X96421016Y-115353936D01*
X96354135Y-115333720D01*
X96309618Y-115282345D01*
X96289523Y-115239251D01*
X96289522Y-115239250D01*
X96158198Y-115051700D01*
X95996300Y-114889802D01*
X95808749Y-114758477D01*
X95758499Y-114735045D01*
X95601249Y-114661718D01*
X95601238Y-114661714D01*
X95380089Y-114602457D01*
X95380081Y-114602456D01*
X95152002Y-114582502D01*
X95151998Y-114582502D01*
X94923918Y-114602456D01*
X94923910Y-114602457D01*
X94702761Y-114661714D01*
X94702750Y-114661718D01*
X94495254Y-114758475D01*
X94495252Y-114758476D01*
X94495249Y-114758477D01*
X94495251Y-114758477D01*
X94307700Y-114889802D01*
X94307698Y-114889803D01*
X94307695Y-114889806D01*
X94145806Y-115051695D01*
X94014476Y-115239251D01*
X93994382Y-115282345D01*
X93948209Y-115334784D01*
X93881016Y-115353936D01*
X93814135Y-115333720D01*
X93769618Y-115282345D01*
X93749523Y-115239251D01*
X93749522Y-115239250D01*
X93618198Y-115051700D01*
X93456300Y-114889802D01*
X93268749Y-114758477D01*
X93218499Y-114735045D01*
X93061249Y-114661718D01*
X93061238Y-114661714D01*
X92840089Y-114602457D01*
X92840081Y-114602456D01*
X92612002Y-114582502D01*
X92611998Y-114582502D01*
X92383918Y-114602456D01*
X92383910Y-114602457D01*
X92162761Y-114661714D01*
X92162750Y-114661718D01*
X91955254Y-114758475D01*
X91955252Y-114758476D01*
X91955249Y-114758477D01*
X91955251Y-114758477D01*
X91767700Y-114889802D01*
X91767698Y-114889803D01*
X91767695Y-114889806D01*
X91605806Y-115051695D01*
X91474476Y-115239251D01*
X91454382Y-115282345D01*
X91408209Y-115334784D01*
X91341016Y-115353936D01*
X91274135Y-115333720D01*
X91229618Y-115282345D01*
X91209523Y-115239251D01*
X91209523Y-115239250D01*
X91078198Y-115051700D01*
X90916300Y-114889802D01*
X90728749Y-114758477D01*
X90678499Y-114735045D01*
X90521249Y-114661718D01*
X90521238Y-114661714D01*
X90300089Y-114602457D01*
X90300081Y-114602456D01*
X90072002Y-114582502D01*
X90071998Y-114582502D01*
X89843918Y-114602456D01*
X89843907Y-114602458D01*
X89621593Y-114662027D01*
X89551743Y-114660364D01*
X89493881Y-114621201D01*
X89466377Y-114556973D01*
X89465500Y-114542252D01*
X89465500Y-114369747D01*
X89485185Y-114302708D01*
X89537989Y-114256953D01*
X89607147Y-114247009D01*
X89621594Y-114249972D01*
X89622755Y-114250283D01*
X89622757Y-114250284D01*
X89843913Y-114309543D01*
X90006832Y-114323796D01*
X90071998Y-114329498D01*
X90072000Y-114329498D01*
X90072002Y-114329498D01*
X90129139Y-114324499D01*
X90300087Y-114309543D01*
X90521243Y-114250284D01*
X90728749Y-114153523D01*
X90916300Y-114022198D01*
X91078198Y-113860300D01*
X91209523Y-113672749D01*
X91229617Y-113629655D01*
X91275790Y-113577215D01*
X91342983Y-113558063D01*
X91409864Y-113578278D01*
X91454382Y-113629655D01*
X91474477Y-113672749D01*
X91605802Y-113860300D01*
X91767700Y-114022198D01*
X91955251Y-114153523D01*
X92010445Y-114179260D01*
X92162750Y-114250281D01*
X92162752Y-114250281D01*
X92162757Y-114250284D01*
X92383913Y-114309543D01*
X92546832Y-114323796D01*
X92611998Y-114329498D01*
X92612000Y-114329498D01*
X92612002Y-114329498D01*
X92669139Y-114324499D01*
X92840087Y-114309543D01*
X93061243Y-114250284D01*
X93268749Y-114153523D01*
X93456300Y-114022198D01*
X93618198Y-113860300D01*
X93749523Y-113672749D01*
X93769617Y-113629655D01*
X93815790Y-113577215D01*
X93882983Y-113558063D01*
X93949864Y-113578278D01*
X93994382Y-113629655D01*
X94014477Y-113672749D01*
X94145802Y-113860300D01*
X94307700Y-114022198D01*
X94495251Y-114153523D01*
X94550445Y-114179260D01*
X94702750Y-114250281D01*
X94702752Y-114250281D01*
X94702757Y-114250284D01*
X94923913Y-114309543D01*
X95086832Y-114323796D01*
X95151998Y-114329498D01*
X95152000Y-114329498D01*
X95152002Y-114329498D01*
X95209139Y-114324499D01*
X95380087Y-114309543D01*
X95601243Y-114250284D01*
X95808749Y-114153523D01*
X95996300Y-114022198D01*
X96158198Y-113860300D01*
X96289523Y-113672749D01*
X96309617Y-113629655D01*
X96355790Y-113577215D01*
X96422983Y-113558063D01*
X96489864Y-113578278D01*
X96534382Y-113629655D01*
X96554477Y-113672749D01*
X96685802Y-113860300D01*
X96847700Y-114022198D01*
X97035251Y-114153523D01*
X97090445Y-114179260D01*
X97242750Y-114250281D01*
X97242752Y-114250281D01*
X97242757Y-114250284D01*
X97463913Y-114309543D01*
X97626832Y-114323796D01*
X97691998Y-114329498D01*
X97692000Y-114329498D01*
X97692002Y-114329498D01*
X97749139Y-114324499D01*
X97920087Y-114309543D01*
X98141243Y-114250284D01*
X98348749Y-114153523D01*
X98536300Y-114022198D01*
X98698198Y-113860300D01*
X98829523Y-113672749D01*
X98926284Y-113465243D01*
X98985543Y-113244087D01*
X99005233Y-113019027D01*
X99005498Y-113016001D01*
X99005498Y-113015998D01*
X98985543Y-112787918D01*
X98985543Y-112787913D01*
X98926284Y-112566757D01*
X98829523Y-112359251D01*
X98698198Y-112171700D01*
X98536300Y-112009802D01*
X98348749Y-111878477D01*
X98348750Y-111878477D01*
X98348748Y-111878476D01*
X98137095Y-111779781D01*
X98084656Y-111733609D01*
X98065500Y-111667399D01*
X98065500Y-111199626D01*
X98067238Y-111183881D01*
X98066967Y-111183856D01*
X98067701Y-111176093D01*
X98065500Y-111106059D01*
X98065500Y-111076150D01*
X98065500Y-111076144D01*
X98064615Y-111069140D01*
X98064156Y-111063311D01*
X98062673Y-111016109D01*
X98056979Y-110996514D01*
X98053032Y-110977457D01*
X98050474Y-110957203D01*
X98033084Y-110913284D01*
X98031193Y-110907757D01*
X98018018Y-110862408D01*
X98018018Y-110862407D01*
X98007624Y-110844832D01*
X97999064Y-110827356D01*
X97991554Y-110808388D01*
X97991554Y-110808387D01*
X97991553Y-110808385D01*
X97991552Y-110808383D01*
X97963789Y-110770171D01*
X97960587Y-110765297D01*
X97936542Y-110724637D01*
X97922106Y-110710201D01*
X97909469Y-110695406D01*
X97897471Y-110678892D01*
X97861084Y-110648790D01*
X97856762Y-110644857D01*
X97750514Y-110538609D01*
X97750495Y-110538591D01*
X94893107Y-107681203D01*
X94859622Y-107619880D01*
X94864606Y-107550188D01*
X94906478Y-107494255D01*
X94907845Y-107493245D01*
X95043253Y-107394866D01*
X95171040Y-107252944D01*
X95266527Y-107087556D01*
X95325542Y-106905928D01*
X95345504Y-106716000D01*
X95325542Y-106526072D01*
X95266527Y-106344444D01*
X95221237Y-106266000D01*
X101845996Y-106266000D01*
X101865958Y-106455928D01*
X101865959Y-106455931D01*
X101924970Y-106637549D01*
X101924973Y-106637556D01*
X102020460Y-106802944D01*
X102094149Y-106884784D01*
X102124380Y-106947775D01*
X102126000Y-106967756D01*
X102126000Y-109059866D01*
X102124261Y-109075613D01*
X102124532Y-109075639D01*
X102123798Y-109083405D01*
X102126000Y-109153457D01*
X102126000Y-109183359D01*
X102126884Y-109190356D01*
X102127342Y-109196179D01*
X102128826Y-109243389D01*
X102128827Y-109243391D01*
X102134522Y-109262995D01*
X102138467Y-109282042D01*
X102141026Y-109302297D01*
X102141027Y-109302300D01*
X102141028Y-109302303D01*
X102158414Y-109346216D01*
X102160306Y-109351744D01*
X102173481Y-109397092D01*
X102183872Y-109414662D01*
X102192432Y-109432135D01*
X102199947Y-109451117D01*
X102227709Y-109489327D01*
X102230916Y-109494210D01*
X102254958Y-109534862D01*
X102254962Y-109534866D01*
X102269389Y-109549293D01*
X102282026Y-109564088D01*
X102294028Y-109580607D01*
X102330431Y-109610722D01*
X102334731Y-109614635D01*
X103258668Y-110538573D01*
X103458428Y-110738333D01*
X103491913Y-110799656D01*
X103491321Y-110854961D01*
X103437465Y-111079285D01*
X103418835Y-111316000D01*
X103437465Y-111552713D01*
X103491321Y-111777038D01*
X103487830Y-111846820D01*
X103458428Y-111893666D01*
X102343179Y-113008914D01*
X102330820Y-113018818D01*
X102330993Y-113019027D01*
X102324982Y-113023999D01*
X102277015Y-113075079D01*
X102255871Y-113096222D01*
X102255863Y-113096231D01*
X102251531Y-113101814D01*
X102247746Y-113106245D01*
X102215416Y-113140675D01*
X102215412Y-113140681D01*
X102205579Y-113158567D01*
X102194903Y-113174820D01*
X102182386Y-113190957D01*
X102182385Y-113190959D01*
X102163625Y-113234310D01*
X102161055Y-113239556D01*
X102138303Y-113280941D01*
X102138303Y-113280942D01*
X102133225Y-113300720D01*
X102126925Y-113319122D01*
X102118818Y-113337857D01*
X102111431Y-113384495D01*
X102110246Y-113390216D01*
X102098500Y-113435965D01*
X102098500Y-113456384D01*
X102096973Y-113475783D01*
X102093780Y-113495941D01*
X102093780Y-113495942D01*
X102098225Y-113542966D01*
X102098500Y-113548804D01*
X102098500Y-116372366D01*
X102096761Y-116388113D01*
X102097032Y-116388139D01*
X102096298Y-116395905D01*
X102098500Y-116465957D01*
X102098500Y-116495859D01*
X102099384Y-116502856D01*
X102099842Y-116508679D01*
X102101326Y-116555889D01*
X102101327Y-116555891D01*
X102107022Y-116575495D01*
X102110967Y-116594542D01*
X102113526Y-116614797D01*
X102113527Y-116614800D01*
X102113528Y-116614803D01*
X102130914Y-116658716D01*
X102132806Y-116664244D01*
X102145981Y-116709592D01*
X102156372Y-116727162D01*
X102164932Y-116744635D01*
X102172447Y-116763617D01*
X102200209Y-116801827D01*
X102203416Y-116806710D01*
X102227458Y-116847362D01*
X102227462Y-116847366D01*
X102241889Y-116861793D01*
X102254526Y-116876588D01*
X102266528Y-116893107D01*
X102302931Y-116923222D01*
X102307231Y-116927135D01*
X102787303Y-117407207D01*
X102982936Y-117602840D01*
X103016421Y-117664163D01*
X103015461Y-117720960D01*
X102987435Y-117831633D01*
X102968844Y-118055994D01*
X102968844Y-118056005D01*
X102987434Y-118280359D01*
X102987436Y-118280371D01*
X103042703Y-118498614D01*
X103133140Y-118704792D01*
X103256276Y-118893265D01*
X103256278Y-118893268D01*
X103407707Y-119057762D01*
X103438629Y-119120415D01*
X103430769Y-119189841D01*
X103386622Y-119243997D01*
X103359811Y-119257926D01*
X103239912Y-119302646D01*
X103239906Y-119302649D01*
X103124812Y-119388809D01*
X103124809Y-119388812D01*
X103038649Y-119503906D01*
X103038645Y-119503913D01*
X102988403Y-119638620D01*
X102988401Y-119638627D01*
X102982000Y-119698155D01*
X102982000Y-120346000D01*
X103898314Y-120346000D01*
X103872507Y-120386156D01*
X103832000Y-120524111D01*
X103832000Y-120667889D01*
X103872507Y-120805844D01*
X103898314Y-120846000D01*
X102982000Y-120846000D01*
X102982000Y-121493844D01*
X102988401Y-121553372D01*
X102988403Y-121553379D01*
X103038645Y-121688086D01*
X103038649Y-121688093D01*
X103124809Y-121803187D01*
X103124812Y-121803190D01*
X103239906Y-121889350D01*
X103239913Y-121889354D01*
X103374620Y-121939596D01*
X103374627Y-121939598D01*
X103434155Y-121945999D01*
X103434172Y-121946000D01*
X104082000Y-121946000D01*
X104082000Y-121031501D01*
X104189685Y-121080680D01*
X104296237Y-121096000D01*
X104367763Y-121096000D01*
X104474315Y-121080680D01*
X104582000Y-121031501D01*
X104582000Y-121946000D01*
X105229828Y-121946000D01*
X105229844Y-121945999D01*
X105289372Y-121939598D01*
X105289379Y-121939596D01*
X105424086Y-121889354D01*
X105424093Y-121889350D01*
X105539187Y-121803190D01*
X105539190Y-121803187D01*
X105625350Y-121688093D01*
X105625354Y-121688086D01*
X105675596Y-121553379D01*
X105675598Y-121553372D01*
X105681999Y-121493844D01*
X105682000Y-121493827D01*
X105682000Y-120846000D01*
X104765686Y-120846000D01*
X104791493Y-120805844D01*
X104832000Y-120667889D01*
X104832000Y-120524111D01*
X104791493Y-120386156D01*
X104765686Y-120346000D01*
X105682000Y-120346000D01*
X105682000Y-119698172D01*
X105681999Y-119698155D01*
X105675598Y-119638627D01*
X105675596Y-119638620D01*
X105625354Y-119503913D01*
X105625350Y-119503906D01*
X105539190Y-119388812D01*
X105539187Y-119388809D01*
X105424093Y-119302649D01*
X105424088Y-119302646D01*
X105304188Y-119257926D01*
X105248255Y-119216054D01*
X105223838Y-119150590D01*
X105238690Y-119082317D01*
X105256286Y-119057769D01*
X105407722Y-118893268D01*
X105530860Y-118704791D01*
X105621296Y-118498616D01*
X105676564Y-118280368D01*
X105695156Y-118056000D01*
X105678166Y-117850968D01*
X105676565Y-117831640D01*
X105676563Y-117831628D01*
X105656678Y-117753104D01*
X105621296Y-117613384D01*
X105530860Y-117407209D01*
X105407722Y-117218732D01*
X105407719Y-117218729D01*
X105407715Y-117218723D01*
X105255243Y-117053097D01*
X105255238Y-117053092D01*
X105126778Y-116953107D01*
X105077576Y-116914811D01*
X105077575Y-116914810D01*
X105077572Y-116914808D01*
X105041068Y-116895053D01*
X104991478Y-116845833D01*
X104976371Y-116777616D01*
X105000542Y-116712061D01*
X105041069Y-116676945D01*
X105077576Y-116657189D01*
X105255240Y-116518906D01*
X105368468Y-116395909D01*
X105407715Y-116353276D01*
X105407716Y-116353274D01*
X105407722Y-116353268D01*
X105530860Y-116164791D01*
X105621296Y-115958616D01*
X105676564Y-115740368D01*
X105676565Y-115740359D01*
X105695156Y-115516005D01*
X105695156Y-115515994D01*
X105676565Y-115291640D01*
X105676563Y-115291628D01*
X105621296Y-115073385D01*
X105611784Y-115051700D01*
X105530860Y-114867209D01*
X105407722Y-114678732D01*
X105407719Y-114678729D01*
X105407715Y-114678723D01*
X105255243Y-114513097D01*
X105255238Y-114513092D01*
X105077577Y-114374812D01*
X105077572Y-114374808D01*
X104879580Y-114267661D01*
X104879577Y-114267659D01*
X104879574Y-114267658D01*
X104879571Y-114267657D01*
X104879569Y-114267656D01*
X104666637Y-114194556D01*
X104444569Y-114157500D01*
X104219431Y-114157500D01*
X103997362Y-114194556D01*
X103784430Y-114267656D01*
X103784419Y-114267661D01*
X103586427Y-114374808D01*
X103586422Y-114374812D01*
X103565663Y-114390970D01*
X103500669Y-114416613D01*
X103432129Y-114403047D01*
X103381804Y-114354579D01*
X103365500Y-114293117D01*
X103365500Y-113829766D01*
X103385185Y-113762727D01*
X103401819Y-113742085D01*
X103862964Y-113280940D01*
X104354334Y-112789569D01*
X104415655Y-112756086D01*
X104470957Y-112756677D01*
X104695289Y-112810535D01*
X104932000Y-112829165D01*
X105168711Y-112810535D01*
X105399594Y-112755105D01*
X105399596Y-112755104D01*
X105399597Y-112755104D01*
X105618959Y-112664242D01*
X105618960Y-112664241D01*
X105618963Y-112664240D01*
X105821416Y-112540176D01*
X106001969Y-112385969D01*
X106156176Y-112205416D01*
X106280240Y-112002963D01*
X106331804Y-111878477D01*
X106371104Y-111783597D01*
X106371104Y-111783596D01*
X106371105Y-111783594D01*
X106426535Y-111552711D01*
X106445165Y-111316000D01*
X106426535Y-111079289D01*
X106371105Y-110848406D01*
X106371104Y-110848403D01*
X106371104Y-110848402D01*
X106280242Y-110629040D01*
X106280240Y-110629037D01*
X106156179Y-110426589D01*
X106156178Y-110426586D01*
X106121340Y-110385797D01*
X106001969Y-110246031D01*
X105882596Y-110144076D01*
X105821413Y-110091821D01*
X105821410Y-110091820D01*
X105618962Y-109967759D01*
X105618959Y-109967757D01*
X105399596Y-109876895D01*
X105168714Y-109821465D01*
X104932000Y-109802835D01*
X104695285Y-109821465D01*
X104470960Y-109875321D01*
X104401177Y-109871830D01*
X104354332Y-109842428D01*
X103429319Y-108917414D01*
X103395834Y-108856091D01*
X103393000Y-108829733D01*
X103393000Y-106967756D01*
X103412685Y-106900717D01*
X103424846Y-106884788D01*
X103498540Y-106802944D01*
X103594027Y-106637556D01*
X103653042Y-106455928D01*
X103673004Y-106266000D01*
X103653042Y-106076072D01*
X103594027Y-105894444D01*
X103498540Y-105729056D01*
X103370753Y-105587134D01*
X103216252Y-105474882D01*
X103041788Y-105397206D01*
X103041786Y-105397205D01*
X102854987Y-105357500D01*
X102664013Y-105357500D01*
X102477214Y-105397205D01*
X102302746Y-105474883D01*
X102148245Y-105587135D01*
X102020459Y-105729057D01*
X101924973Y-105894443D01*
X101924970Y-105894450D01*
X101865959Y-106076068D01*
X101865958Y-106076072D01*
X101845996Y-106266000D01*
X95221237Y-106266000D01*
X95171040Y-106179056D01*
X95043253Y-106037134D01*
X94888752Y-105924882D01*
X94714288Y-105847206D01*
X94714286Y-105847205D01*
X94527487Y-105807500D01*
X94470766Y-105807500D01*
X94403727Y-105787815D01*
X94383085Y-105771181D01*
X93641819Y-105029914D01*
X93608334Y-104968591D01*
X93605500Y-104942233D01*
X93605500Y-102534352D01*
X93625185Y-102467313D01*
X93658373Y-102432779D01*
X93816300Y-102322198D01*
X93978198Y-102160300D01*
X94109523Y-101972749D01*
X94129617Y-101929655D01*
X94175790Y-101877215D01*
X94242983Y-101858063D01*
X94309864Y-101878278D01*
X94354382Y-101929655D01*
X94374477Y-101972749D01*
X94505802Y-102160300D01*
X94667700Y-102322198D01*
X94825625Y-102432779D01*
X94869249Y-102487354D01*
X94878500Y-102534352D01*
X94878500Y-103860201D01*
X94858815Y-103927240D01*
X94846650Y-103943173D01*
X94785258Y-104011356D01*
X94689772Y-104176742D01*
X94689769Y-104176749D01*
X94630758Y-104358367D01*
X94630757Y-104358371D01*
X94610795Y-104548299D01*
X94630757Y-104738227D01*
X94630758Y-104738230D01*
X94689769Y-104919848D01*
X94689772Y-104919855D01*
X94785259Y-105085243D01*
X94913046Y-105227165D01*
X95067547Y-105339417D01*
X95242011Y-105417093D01*
X95428812Y-105456799D01*
X95619786Y-105456799D01*
X95806587Y-105417093D01*
X95981051Y-105339417D01*
X96135552Y-105227165D01*
X96263339Y-105085243D01*
X96358826Y-104919855D01*
X96417841Y-104738227D01*
X96437803Y-104548299D01*
X96417841Y-104358371D01*
X96358826Y-104176743D01*
X96263339Y-104011355D01*
X96177350Y-103915854D01*
X96147120Y-103852862D01*
X96145500Y-103832882D01*
X96145500Y-102534352D01*
X96165185Y-102467313D01*
X96198373Y-102432779D01*
X96356300Y-102322198D01*
X96518198Y-102160300D01*
X96649523Y-101972749D01*
X96669617Y-101929655D01*
X96715790Y-101877215D01*
X96782983Y-101858063D01*
X96849864Y-101878278D01*
X96894382Y-101929655D01*
X96914477Y-101972749D01*
X97045802Y-102160300D01*
X97207700Y-102322198D01*
X97395251Y-102453523D01*
X97520091Y-102511736D01*
X97602750Y-102550281D01*
X97602752Y-102550281D01*
X97602757Y-102550284D01*
X97823913Y-102609543D01*
X97986832Y-102623796D01*
X98051998Y-102629498D01*
X98052000Y-102629498D01*
X98052002Y-102629498D01*
X98109139Y-102624499D01*
X98280087Y-102609543D01*
X98501243Y-102550284D01*
X98708749Y-102453523D01*
X98896300Y-102322198D01*
X99058198Y-102160300D01*
X99189523Y-101972749D01*
X99214307Y-101919598D01*
X99260479Y-101867159D01*
X99327672Y-101848007D01*
X99394553Y-101868222D01*
X99439071Y-101919599D01*
X99461864Y-101968479D01*
X99461865Y-101968481D01*
X99592342Y-102154820D01*
X99753179Y-102315657D01*
X99939517Y-102446134D01*
X100145673Y-102542265D01*
X100145682Y-102542269D01*
X100341999Y-102594872D01*
X100342000Y-102594871D01*
X100342000Y-101631686D01*
X100353955Y-101643641D01*
X100466852Y-101701165D01*
X100560519Y-101716000D01*
X100623481Y-101716000D01*
X100717148Y-101701165D01*
X100830045Y-101643641D01*
X100842000Y-101631686D01*
X100842000Y-102594872D01*
X101038317Y-102542269D01*
X101038326Y-102542265D01*
X101244482Y-102446134D01*
X101430820Y-102315657D01*
X101591657Y-102154820D01*
X101722134Y-101968481D01*
X101722135Y-101968479D01*
X101749618Y-101909543D01*
X101795790Y-101857103D01*
X101862983Y-101837951D01*
X101929864Y-101858166D01*
X101974382Y-101909543D01*
X102001864Y-101968479D01*
X102001865Y-101968481D01*
X102132342Y-102154820D01*
X102293179Y-102315657D01*
X102479517Y-102446134D01*
X102685673Y-102542265D01*
X102685682Y-102542269D01*
X102881999Y-102594872D01*
X102881999Y-102594871D01*
X102881999Y-101631685D01*
X102893955Y-101643641D01*
X103006852Y-101701165D01*
X103100519Y-101716000D01*
X103163481Y-101716000D01*
X103257148Y-101701165D01*
X103370045Y-101643641D01*
X103382000Y-101631686D01*
X103382000Y-102594872D01*
X103578317Y-102542269D01*
X103578326Y-102542265D01*
X103784482Y-102446134D01*
X103970820Y-102315657D01*
X104131657Y-102154820D01*
X104262134Y-101968481D01*
X104262135Y-101968479D01*
X104289618Y-101909543D01*
X104335790Y-101857103D01*
X104402983Y-101837951D01*
X104469864Y-101858166D01*
X104514382Y-101909543D01*
X104541864Y-101968479D01*
X104541865Y-101968481D01*
X104672342Y-102154820D01*
X104833179Y-102315657D01*
X105019517Y-102446134D01*
X105225673Y-102542265D01*
X105225682Y-102542269D01*
X105421999Y-102594872D01*
X105422000Y-102594871D01*
X105422000Y-101631686D01*
X105433955Y-101643641D01*
X105546852Y-101701165D01*
X105640519Y-101716000D01*
X105703481Y-101716000D01*
X105797148Y-101701165D01*
X105910045Y-101643641D01*
X105921999Y-101631686D01*
X105921999Y-102594871D01*
X105922000Y-102594872D01*
X106118317Y-102542269D01*
X106118326Y-102542265D01*
X106324482Y-102446134D01*
X106510820Y-102315657D01*
X106671657Y-102154820D01*
X106802134Y-101968482D01*
X106898265Y-101762326D01*
X106898269Y-101762317D01*
X106950872Y-101566000D01*
X105987686Y-101566000D01*
X105999641Y-101554045D01*
X106057165Y-101441148D01*
X106076986Y-101316000D01*
X106057165Y-101190852D01*
X105999641Y-101077955D01*
X105987686Y-101066000D01*
X106950872Y-101066000D01*
X106950872Y-101065999D01*
X106898269Y-100869682D01*
X106898265Y-100869673D01*
X106802134Y-100663517D01*
X106671657Y-100477179D01*
X106510820Y-100316342D01*
X106324482Y-100185865D01*
X106118328Y-100089734D01*
X105922000Y-100037127D01*
X105922000Y-101000313D01*
X105910045Y-100988359D01*
X105797148Y-100930835D01*
X105703481Y-100916000D01*
X105640519Y-100916000D01*
X105546852Y-100930835D01*
X105433955Y-100988359D01*
X105422000Y-101000314D01*
X105422000Y-100037127D01*
X105225671Y-100089734D01*
X105019517Y-100185865D01*
X104833179Y-100316342D01*
X104672342Y-100477179D01*
X104541865Y-100663517D01*
X104514382Y-100722457D01*
X104468210Y-100774896D01*
X104401016Y-100794048D01*
X104334135Y-100773832D01*
X104289618Y-100722457D01*
X104262134Y-100663517D01*
X104131657Y-100477179D01*
X103970820Y-100316342D01*
X103784482Y-100185865D01*
X103578328Y-100089734D01*
X103382000Y-100037127D01*
X103382000Y-101000313D01*
X103370045Y-100988359D01*
X103257148Y-100930835D01*
X103163481Y-100916000D01*
X103100519Y-100916000D01*
X103006852Y-100930835D01*
X102893955Y-100988359D01*
X102881999Y-101000314D01*
X102882000Y-100037127D01*
X102685671Y-100089734D01*
X102479517Y-100185865D01*
X102293179Y-100316342D01*
X102132342Y-100477179D01*
X102001865Y-100663517D01*
X101974382Y-100722457D01*
X101928210Y-100774896D01*
X101861016Y-100794048D01*
X101794135Y-100773832D01*
X101749618Y-100722457D01*
X101722134Y-100663517D01*
X101591657Y-100477179D01*
X101430820Y-100316342D01*
X101244482Y-100185865D01*
X101038328Y-100089734D01*
X100842000Y-100037127D01*
X100842000Y-101000314D01*
X100830045Y-100988359D01*
X100717148Y-100930835D01*
X100623481Y-100916000D01*
X100560519Y-100916000D01*
X100466852Y-100930835D01*
X100353955Y-100988359D01*
X100342000Y-101000314D01*
X100342000Y-100037127D01*
X100145671Y-100089734D01*
X99939517Y-100185865D01*
X99753179Y-100316342D01*
X99592342Y-100477179D01*
X99461865Y-100663517D01*
X99439071Y-100712401D01*
X99392898Y-100764840D01*
X99325705Y-100783992D01*
X99258824Y-100763776D01*
X99214307Y-100712401D01*
X99189523Y-100659251D01*
X99058198Y-100471700D01*
X98896300Y-100309802D01*
X98708749Y-100178477D01*
X98708745Y-100178475D01*
X98501249Y-100081718D01*
X98501238Y-100081714D01*
X98280089Y-100022457D01*
X98280081Y-100022456D01*
X98052002Y-100002502D01*
X98051998Y-100002502D01*
X97823918Y-100022456D01*
X97823910Y-100022457D01*
X97602761Y-100081714D01*
X97602750Y-100081718D01*
X97395254Y-100178475D01*
X97395252Y-100178476D01*
X97395249Y-100178477D01*
X97395251Y-100178477D01*
X97207700Y-100309802D01*
X97207698Y-100309803D01*
X97207695Y-100309806D01*
X97045806Y-100471695D01*
X96914476Y-100659251D01*
X96894382Y-100702345D01*
X96848209Y-100754784D01*
X96781016Y-100773936D01*
X96714135Y-100753720D01*
X96669618Y-100702345D01*
X96649523Y-100659251D01*
X96518198Y-100471700D01*
X96356300Y-100309802D01*
X96168749Y-100178477D01*
X96168745Y-100178475D01*
X95961249Y-100081718D01*
X95961238Y-100081714D01*
X95740089Y-100022457D01*
X95740081Y-100022456D01*
X95512002Y-100002502D01*
X95511998Y-100002502D01*
X95283918Y-100022456D01*
X95283910Y-100022457D01*
X95062761Y-100081714D01*
X95062750Y-100081718D01*
X94855254Y-100178475D01*
X94855252Y-100178476D01*
X94855249Y-100178477D01*
X94855251Y-100178477D01*
X94667700Y-100309802D01*
X94667698Y-100309803D01*
X94667695Y-100309806D01*
X94505806Y-100471695D01*
X94374476Y-100659251D01*
X94354382Y-100702345D01*
X94308209Y-100754784D01*
X94241016Y-100773936D01*
X94174135Y-100753720D01*
X94129618Y-100702345D01*
X94109523Y-100659251D01*
X93978198Y-100471700D01*
X93816300Y-100309802D01*
X93628749Y-100178477D01*
X93628745Y-100178475D01*
X93421249Y-100081718D01*
X93421238Y-100081714D01*
X93200089Y-100022457D01*
X93200081Y-100022456D01*
X92972002Y-100002502D01*
X92971998Y-100002502D01*
X92743918Y-100022456D01*
X92743910Y-100022457D01*
X92522761Y-100081714D01*
X92522750Y-100081718D01*
X92315254Y-100178475D01*
X92315252Y-100178476D01*
X92315249Y-100178477D01*
X92315251Y-100178477D01*
X92127700Y-100309802D01*
X92127698Y-100309803D01*
X92127695Y-100309806D01*
X91965806Y-100471695D01*
X91834476Y-100659251D01*
X91814382Y-100702345D01*
X91768209Y-100754784D01*
X91701016Y-100773936D01*
X91634135Y-100753720D01*
X91589618Y-100702345D01*
X91569523Y-100659251D01*
X91569522Y-100659251D01*
X91438198Y-100471700D01*
X91276300Y-100309802D01*
X91088749Y-100178477D01*
X91088745Y-100178475D01*
X90881249Y-100081718D01*
X90881238Y-100081714D01*
X90660089Y-100022457D01*
X90660081Y-100022456D01*
X90432002Y-100002502D01*
X90431998Y-100002502D01*
X90203918Y-100022456D01*
X90203910Y-100022457D01*
X89982761Y-100081714D01*
X89982750Y-100081718D01*
X89775254Y-100178475D01*
X89775252Y-100178476D01*
X89775249Y-100178477D01*
X89775251Y-100178477D01*
X89587700Y-100309802D01*
X89587698Y-100309803D01*
X89587695Y-100309806D01*
X89425806Y-100471695D01*
X89294476Y-100659251D01*
X89274382Y-100702345D01*
X89228209Y-100754784D01*
X89161016Y-100773936D01*
X89094135Y-100753720D01*
X89049618Y-100702345D01*
X89029523Y-100659251D01*
X89029522Y-100659251D01*
X88898198Y-100471700D01*
X88736300Y-100309802D01*
X88548749Y-100178477D01*
X88548745Y-100178475D01*
X88341249Y-100081718D01*
X88341238Y-100081714D01*
X88120089Y-100022457D01*
X88120081Y-100022456D01*
X87892002Y-100002502D01*
X87891998Y-100002502D01*
X87663918Y-100022456D01*
X87663910Y-100022457D01*
X87442761Y-100081714D01*
X87442750Y-100081718D01*
X87235254Y-100178475D01*
X87235252Y-100178476D01*
X87235249Y-100178477D01*
X87235251Y-100178477D01*
X87047700Y-100309802D01*
X87047698Y-100309803D01*
X87047695Y-100309806D01*
X86885806Y-100471695D01*
X86754476Y-100659251D01*
X86734382Y-100702345D01*
X86688209Y-100754784D01*
X86621016Y-100773936D01*
X86554135Y-100753720D01*
X86509618Y-100702345D01*
X86489523Y-100659251D01*
X86489522Y-100659250D01*
X86358198Y-100471700D01*
X86196300Y-100309802D01*
X86008749Y-100178477D01*
X86008745Y-100178475D01*
X85801249Y-100081718D01*
X85801238Y-100081714D01*
X85580089Y-100022457D01*
X85580081Y-100022456D01*
X85352002Y-100002502D01*
X85351998Y-100002502D01*
X85123918Y-100022456D01*
X85123910Y-100022457D01*
X84902761Y-100081714D01*
X84902750Y-100081718D01*
X84695254Y-100178475D01*
X84695252Y-100178476D01*
X84695249Y-100178477D01*
X84695251Y-100178477D01*
X84507700Y-100309802D01*
X84507698Y-100309803D01*
X84507695Y-100309806D01*
X84345805Y-100471696D01*
X84340429Y-100479374D01*
X84285849Y-100522995D01*
X84216350Y-100530184D01*
X84153997Y-100498658D01*
X84118587Y-100438426D01*
X84115570Y-100421510D01*
X84113989Y-100406799D01*
X84062889Y-100269796D01*
X83975261Y-100152739D01*
X83858204Y-100065111D01*
X83858204Y-100065110D01*
X83721203Y-100014011D01*
X83660654Y-100007500D01*
X83660638Y-100007500D01*
X81963362Y-100007500D01*
X81963345Y-100007500D01*
X81902797Y-100014011D01*
X81902795Y-100014011D01*
X81765795Y-100065111D01*
X81648739Y-100152739D01*
X81561111Y-100269795D01*
X81510011Y-100406795D01*
X81510011Y-100406797D01*
X81503500Y-100467345D01*
X81503500Y-102164654D01*
X81510011Y-102225202D01*
X81510011Y-102225204D01*
X81546189Y-102322198D01*
X81561111Y-102362204D01*
X81648739Y-102479261D01*
X81765796Y-102566889D01*
X81902799Y-102617989D01*
X81930050Y-102620918D01*
X81963345Y-102624499D01*
X81963362Y-102624500D01*
X83660638Y-102624500D01*
X83660654Y-102624499D01*
X83687692Y-102621591D01*
X83721201Y-102617989D01*
X83858204Y-102566889D01*
X83975261Y-102479261D01*
X84062889Y-102362204D01*
X84113989Y-102225201D01*
X84115569Y-102210500D01*
X84142304Y-102145952D01*
X84199695Y-102106102D01*
X84269521Y-102103606D01*
X84329611Y-102139257D01*
X84340428Y-102152626D01*
X84345802Y-102160300D01*
X84507700Y-102322198D01*
X84695251Y-102453523D01*
X84820091Y-102511736D01*
X84902750Y-102550281D01*
X84902752Y-102550281D01*
X84902757Y-102550284D01*
X85123913Y-102609543D01*
X85286832Y-102623796D01*
X85351998Y-102629498D01*
X85352000Y-102629498D01*
X85352002Y-102629498D01*
X85409139Y-102624499D01*
X85580087Y-102609543D01*
X85801243Y-102550284D01*
X86008749Y-102453523D01*
X86196300Y-102322198D01*
X86358198Y-102160300D01*
X86489523Y-101972749D01*
X86509617Y-101929655D01*
X86555790Y-101877215D01*
X86622983Y-101858063D01*
X86689864Y-101878278D01*
X86734382Y-101929655D01*
X86754477Y-101972749D01*
X86885802Y-102160300D01*
X87047700Y-102322198D01*
X87235251Y-102453523D01*
X87360091Y-102511736D01*
X87442750Y-102550281D01*
X87442752Y-102550281D01*
X87442757Y-102550284D01*
X87663913Y-102609543D01*
X87826832Y-102623796D01*
X87891998Y-102629498D01*
X87892000Y-102629498D01*
X87892002Y-102629498D01*
X87949139Y-102624499D01*
X88120087Y-102609543D01*
X88341243Y-102550284D01*
X88548749Y-102453523D01*
X88736300Y-102322198D01*
X88898198Y-102160300D01*
X89029523Y-101972749D01*
X89049617Y-101929655D01*
X89095790Y-101877215D01*
X89162983Y-101858063D01*
X89229864Y-101878278D01*
X89274382Y-101929655D01*
X89294477Y-101972749D01*
X89425802Y-102160300D01*
X89587700Y-102322198D01*
X89775251Y-102453523D01*
X89900091Y-102511736D01*
X89982750Y-102550281D01*
X89982752Y-102550281D01*
X89982757Y-102550284D01*
X90203913Y-102609543D01*
X90366832Y-102623796D01*
X90431998Y-102629498D01*
X90432000Y-102629498D01*
X90432002Y-102629498D01*
X90489139Y-102624499D01*
X90660087Y-102609543D01*
X90881243Y-102550284D01*
X91088749Y-102453523D01*
X91276300Y-102322198D01*
X91438198Y-102160300D01*
X91569523Y-101972749D01*
X91589617Y-101929655D01*
X91635790Y-101877215D01*
X91702983Y-101858063D01*
X91769864Y-101878278D01*
X91814382Y-101929655D01*
X91834477Y-101972749D01*
X91965802Y-102160300D01*
X92127700Y-102322198D01*
X92285625Y-102432779D01*
X92329249Y-102487354D01*
X92338500Y-102534352D01*
X92338500Y-104829957D01*
X92318815Y-104896996D01*
X92266011Y-104942751D01*
X92196853Y-104952695D01*
X92133297Y-104923670D01*
X92129618Y-104920350D01*
X92107326Y-104899417D01*
X92107319Y-104899412D01*
X92089431Y-104889578D01*
X92073170Y-104878897D01*
X92057039Y-104866384D01*
X92013693Y-104847627D01*
X92008445Y-104845056D01*
X91980979Y-104829957D01*
X91967060Y-104822305D01*
X91963660Y-104821432D01*
X91947287Y-104817228D01*
X91928881Y-104810926D01*
X91910144Y-104802818D01*
X91910146Y-104802818D01*
X91863496Y-104795430D01*
X91857781Y-104794246D01*
X91837612Y-104789068D01*
X91812032Y-104782500D01*
X91812030Y-104782500D01*
X91791616Y-104782500D01*
X91772217Y-104780973D01*
X91752058Y-104777780D01*
X91752057Y-104777780D01*
X91705034Y-104782225D01*
X91699196Y-104782500D01*
X87570259Y-104782500D01*
X87554511Y-104780761D01*
X87554486Y-104781032D01*
X87546719Y-104780298D01*
X87546716Y-104780298D01*
X87476667Y-104782500D01*
X87446762Y-104782500D01*
X87439768Y-104783384D01*
X87433945Y-104783842D01*
X87386736Y-104785326D01*
X87386733Y-104785327D01*
X87367130Y-104791022D01*
X87348084Y-104794966D01*
X87327828Y-104797526D01*
X87327826Y-104797526D01*
X87327824Y-104797527D01*
X87283907Y-104814914D01*
X87278381Y-104816806D01*
X87233031Y-104829982D01*
X87215458Y-104840374D01*
X87197995Y-104848929D01*
X87179010Y-104856446D01*
X87179008Y-104856447D01*
X87140804Y-104884204D01*
X87135921Y-104887412D01*
X87095262Y-104911458D01*
X87080821Y-104925898D01*
X87066033Y-104938527D01*
X87049522Y-104950523D01*
X87049517Y-104950528D01*
X87019415Y-104986914D01*
X87015483Y-104991236D01*
X86702064Y-105304654D01*
X86640741Y-105338139D01*
X86588602Y-105338263D01*
X86432112Y-105305000D01*
X86241138Y-105305000D01*
X86054339Y-105344705D01*
X86054336Y-105344706D01*
X86054337Y-105344706D01*
X85891753Y-105417093D01*
X85879871Y-105422383D01*
X85725370Y-105534635D01*
X85597584Y-105676557D01*
X85502098Y-105841943D01*
X85502095Y-105841950D01*
X85475149Y-105924883D01*
X85443083Y-106023572D01*
X85423121Y-106213500D01*
X85443083Y-106403428D01*
X85443084Y-106403431D01*
X85502095Y-106585049D01*
X85502098Y-106585056D01*
X85597585Y-106750444D01*
X85725372Y-106892366D01*
X85879873Y-107004618D01*
X86054337Y-107082294D01*
X86241138Y-107122000D01*
X86432112Y-107122000D01*
X86618913Y-107082294D01*
X86793377Y-107004618D01*
X86947878Y-106892366D01*
X87073416Y-106752942D01*
X87075661Y-106750449D01*
X87075661Y-106750447D01*
X87075665Y-106750444D01*
X87105181Y-106699319D01*
X87124880Y-106673647D01*
X87712709Y-106085819D01*
X87774033Y-106052334D01*
X87800391Y-106049500D01*
X87805613Y-106049500D01*
X87872652Y-106069185D01*
X87918407Y-106121989D01*
X87928933Y-106186460D01*
X87915621Y-106313125D01*
X87935583Y-106503053D01*
X87935584Y-106503056D01*
X87994595Y-106684674D01*
X87994598Y-106684681D01*
X88056366Y-106791667D01*
X88090085Y-106850069D01*
X88166652Y-106935105D01*
X88196880Y-106998093D01*
X88198500Y-107018074D01*
X88198500Y-111688383D01*
X88178815Y-111755422D01*
X88126011Y-111801177D01*
X88056853Y-111811121D01*
X88022097Y-111800766D01*
X87985270Y-111783594D01*
X87981243Y-111781716D01*
X87981242Y-111781715D01*
X87981238Y-111781714D01*
X87760089Y-111722457D01*
X87760081Y-111722456D01*
X87532002Y-111702502D01*
X87531998Y-111702502D01*
X87303918Y-111722456D01*
X87303910Y-111722457D01*
X87082761Y-111781714D01*
X87082750Y-111781718D01*
X86875254Y-111878475D01*
X86875252Y-111878476D01*
X86875249Y-111878477D01*
X86875251Y-111878477D01*
X86687700Y-112009802D01*
X86687698Y-112009803D01*
X86687695Y-112009806D01*
X86525806Y-112171695D01*
X86394476Y-112359251D01*
X86374382Y-112402345D01*
X86328209Y-112454784D01*
X86261016Y-112473936D01*
X86194135Y-112453720D01*
X86149618Y-112402345D01*
X86129523Y-112359251D01*
X85998198Y-112171700D01*
X85836300Y-112009802D01*
X85648749Y-111878477D01*
X85598499Y-111855045D01*
X85441249Y-111781718D01*
X85441238Y-111781714D01*
X85220089Y-111722457D01*
X85220081Y-111722456D01*
X84992002Y-111702502D01*
X84991998Y-111702502D01*
X84763918Y-111722456D01*
X84763910Y-111722457D01*
X84542761Y-111781714D01*
X84542750Y-111781718D01*
X84335254Y-111878475D01*
X84335252Y-111878476D01*
X84335249Y-111878477D01*
X84335251Y-111878477D01*
X84147700Y-112009802D01*
X84147698Y-112009803D01*
X84147695Y-112009806D01*
X83985805Y-112171696D01*
X83980429Y-112179374D01*
X83925849Y-112222995D01*
X83856350Y-112230184D01*
X83793997Y-112198658D01*
X83758587Y-112138426D01*
X83755570Y-112121510D01*
X83753989Y-112106799D01*
X83702889Y-111969796D01*
X83615261Y-111852739D01*
X83498204Y-111765111D01*
X83488308Y-111761420D01*
X83361203Y-111714011D01*
X83300654Y-111707500D01*
X83300638Y-111707500D01*
X81603362Y-111707500D01*
X81603345Y-111707500D01*
X81542797Y-111714011D01*
X81542795Y-111714011D01*
X81405795Y-111765111D01*
X81288739Y-111852739D01*
X81201111Y-111969795D01*
X81150011Y-112106795D01*
X81150011Y-112106797D01*
X81143500Y-112167345D01*
X81143500Y-113864654D01*
X79132500Y-113864654D01*
X79132500Y-98840500D01*
X79152185Y-98773461D01*
X79204989Y-98727706D01*
X79256500Y-98716500D01*
X112907500Y-98716500D01*
X112974539Y-98736185D01*
G37*
%TD.AperFunction*%
%TD*%
M02*
