%TF.GenerationSoftware,KiCad,Pcbnew,7.0.6-7.0.6~ubuntu22.04.1*%
%TF.CreationDate,2023-08-03T12:39:30-07:00*%
%TF.ProjectId,2r2_dac_r3,3272325f-6461-4635-9f72-332e6b696361,rev?*%
%TF.SameCoordinates,Original*%
%TF.FileFunction,Legend,Top*%
%TF.FilePolarity,Positive*%
%FSLAX46Y46*%
G04 Gerber Fmt 4.6, Leading zero omitted, Abs format (unit mm)*
G04 Created by KiCad (PCBNEW 7.0.6-7.0.6~ubuntu22.04.1) date 2023-08-03 12:39:30*
%MOMM*%
%LPD*%
G01*
G04 APERTURE LIST*
G04 Aperture macros list*
%AMRoundRect*
0 Rectangle with rounded corners*
0 $1 Rounding radius*
0 $2 $3 $4 $5 $6 $7 $8 $9 X,Y pos of 4 corners*
0 Add a 4 corners polygon primitive as box body*
4,1,4,$2,$3,$4,$5,$6,$7,$8,$9,$2,$3,0*
0 Add four circle primitives for the rounded corners*
1,1,$1+$1,$2,$3*
1,1,$1+$1,$4,$5*
1,1,$1+$1,$6,$7*
1,1,$1+$1,$8,$9*
0 Add four rect primitives between the rounded corners*
20,1,$1+$1,$2,$3,$4,$5,0*
20,1,$1+$1,$4,$5,$6,$7,0*
20,1,$1+$1,$6,$7,$8,$9,0*
20,1,$1+$1,$8,$9,$2,$3,0*%
G04 Aperture macros list end*
%ADD10C,0.300000*%
%ADD11C,0.200000*%
%ADD12C,0.250000*%
%ADD13C,0.150000*%
%ADD14C,0.120000*%
%ADD15RoundRect,0.237500X-0.237500X0.250000X-0.237500X-0.250000X0.237500X-0.250000X0.237500X0.250000X0*%
%ADD16RoundRect,0.150000X-0.512500X-0.150000X0.512500X-0.150000X0.512500X0.150000X-0.512500X0.150000X0*%
%ADD17RoundRect,0.237500X0.237500X-0.300000X0.237500X0.300000X-0.237500X0.300000X-0.237500X-0.300000X0*%
%ADD18R,1.600000X1.600000*%
%ADD19O,1.600000X1.600000*%
%ADD20RoundRect,0.237500X-0.300000X-0.237500X0.300000X-0.237500X0.300000X0.237500X-0.300000X0.237500X0*%
%ADD21RoundRect,0.237500X-0.250000X-0.237500X0.250000X-0.237500X0.250000X0.237500X-0.250000X0.237500X0*%
%ADD22C,2.000000*%
%ADD23C,4.500000*%
%ADD24RoundRect,0.237500X-0.237500X0.300000X-0.237500X-0.300000X0.237500X-0.300000X0.237500X0.300000X0*%
%ADD25RoundRect,0.237500X0.250000X0.237500X-0.250000X0.237500X-0.250000X-0.237500X0.250000X-0.237500X0*%
%ADD26RoundRect,0.150000X0.150000X-0.825000X0.150000X0.825000X-0.150000X0.825000X-0.150000X-0.825000X0*%
%ADD27R,1.700000X1.700000*%
%ADD28O,1.700000X1.700000*%
G04 APERTURE END LIST*
D10*
X99986510Y-118916828D02*
X99986510Y-117416828D01*
X99986510Y-117416828D02*
X100343653Y-117416828D01*
X100343653Y-117416828D02*
X100557939Y-117488257D01*
X100557939Y-117488257D02*
X100700796Y-117631114D01*
X100700796Y-117631114D02*
X100772225Y-117773971D01*
X100772225Y-117773971D02*
X100843653Y-118059685D01*
X100843653Y-118059685D02*
X100843653Y-118273971D01*
X100843653Y-118273971D02*
X100772225Y-118559685D01*
X100772225Y-118559685D02*
X100700796Y-118702542D01*
X100700796Y-118702542D02*
X100557939Y-118845400D01*
X100557939Y-118845400D02*
X100343653Y-118916828D01*
X100343653Y-118916828D02*
X99986510Y-118916828D01*
X101772225Y-117416828D02*
X102057939Y-117416828D01*
X102057939Y-117416828D02*
X102200796Y-117488257D01*
X102200796Y-117488257D02*
X102343653Y-117631114D01*
X102343653Y-117631114D02*
X102415082Y-117916828D01*
X102415082Y-117916828D02*
X102415082Y-118416828D01*
X102415082Y-118416828D02*
X102343653Y-118702542D01*
X102343653Y-118702542D02*
X102200796Y-118845400D01*
X102200796Y-118845400D02*
X102057939Y-118916828D01*
X102057939Y-118916828D02*
X101772225Y-118916828D01*
X101772225Y-118916828D02*
X101629368Y-118845400D01*
X101629368Y-118845400D02*
X101486510Y-118702542D01*
X101486510Y-118702542D02*
X101415082Y-118416828D01*
X101415082Y-118416828D02*
X101415082Y-117916828D01*
X101415082Y-117916828D02*
X101486510Y-117631114D01*
X101486510Y-117631114D02*
X101629368Y-117488257D01*
X101629368Y-117488257D02*
X101772225Y-117416828D01*
D11*
X95144530Y-125411790D02*
X95049292Y-125364171D01*
X95049292Y-125364171D02*
X95001673Y-125316552D01*
X95001673Y-125316552D02*
X94954054Y-125221314D01*
X94954054Y-125221314D02*
X94954054Y-125173695D01*
X94954054Y-125173695D02*
X95001673Y-125078457D01*
X95001673Y-125078457D02*
X95049292Y-125030838D01*
X95049292Y-125030838D02*
X95144530Y-124983219D01*
X95144530Y-124983219D02*
X95335006Y-124983219D01*
X95335006Y-124983219D02*
X95430244Y-125030838D01*
X95430244Y-125030838D02*
X95477863Y-125078457D01*
X95477863Y-125078457D02*
X95525482Y-125173695D01*
X95525482Y-125173695D02*
X95525482Y-125221314D01*
X95525482Y-125221314D02*
X95477863Y-125316552D01*
X95477863Y-125316552D02*
X95430244Y-125364171D01*
X95430244Y-125364171D02*
X95335006Y-125411790D01*
X95335006Y-125411790D02*
X95144530Y-125411790D01*
X95144530Y-125411790D02*
X95049292Y-125459409D01*
X95049292Y-125459409D02*
X95001673Y-125507028D01*
X95001673Y-125507028D02*
X94954054Y-125602266D01*
X94954054Y-125602266D02*
X94954054Y-125792742D01*
X94954054Y-125792742D02*
X95001673Y-125887980D01*
X95001673Y-125887980D02*
X95049292Y-125935600D01*
X95049292Y-125935600D02*
X95144530Y-125983219D01*
X95144530Y-125983219D02*
X95335006Y-125983219D01*
X95335006Y-125983219D02*
X95430244Y-125935600D01*
X95430244Y-125935600D02*
X95477863Y-125887980D01*
X95477863Y-125887980D02*
X95525482Y-125792742D01*
X95525482Y-125792742D02*
X95525482Y-125602266D01*
X95525482Y-125602266D02*
X95477863Y-125507028D01*
X95477863Y-125507028D02*
X95430244Y-125459409D01*
X95430244Y-125459409D02*
X95335006Y-125411790D01*
D10*
X102272225Y-119888257D02*
X102129368Y-119816828D01*
X102129368Y-119816828D02*
X101915082Y-119816828D01*
X101915082Y-119816828D02*
X101700796Y-119888257D01*
X101700796Y-119888257D02*
X101557939Y-120031114D01*
X101557939Y-120031114D02*
X101486510Y-120173971D01*
X101486510Y-120173971D02*
X101415082Y-120459685D01*
X101415082Y-120459685D02*
X101415082Y-120673971D01*
X101415082Y-120673971D02*
X101486510Y-120959685D01*
X101486510Y-120959685D02*
X101557939Y-121102542D01*
X101557939Y-121102542D02*
X101700796Y-121245400D01*
X101700796Y-121245400D02*
X101915082Y-121316828D01*
X101915082Y-121316828D02*
X102057939Y-121316828D01*
X102057939Y-121316828D02*
X102272225Y-121245400D01*
X102272225Y-121245400D02*
X102343653Y-121173971D01*
X102343653Y-121173971D02*
X102343653Y-120673971D01*
X102343653Y-120673971D02*
X102057939Y-120673971D01*
X99786510Y-115645400D02*
X100929368Y-115645400D01*
X100357939Y-116216828D02*
X100357939Y-115073971D01*
X102357939Y-114716828D02*
X101643653Y-114716828D01*
X101643653Y-114716828D02*
X101572225Y-115431114D01*
X101572225Y-115431114D02*
X101643653Y-115359685D01*
X101643653Y-115359685D02*
X101786511Y-115288257D01*
X101786511Y-115288257D02*
X102143653Y-115288257D01*
X102143653Y-115288257D02*
X102286511Y-115359685D01*
X102286511Y-115359685D02*
X102357939Y-115431114D01*
X102357939Y-115431114D02*
X102429368Y-115573971D01*
X102429368Y-115573971D02*
X102429368Y-115931114D01*
X102429368Y-115931114D02*
X102357939Y-116073971D01*
X102357939Y-116073971D02*
X102286511Y-116145400D01*
X102286511Y-116145400D02*
X102143653Y-116216828D01*
X102143653Y-116216828D02*
X101786511Y-116216828D01*
X101786511Y-116216828D02*
X101643653Y-116145400D01*
X101643653Y-116145400D02*
X101572225Y-116073971D01*
D11*
X97625482Y-126033219D02*
X97054054Y-126033219D01*
X97339768Y-126033219D02*
X97339768Y-125033219D01*
X97339768Y-125033219D02*
X97244530Y-125176076D01*
X97244530Y-125176076D02*
X97149292Y-125271314D01*
X97149292Y-125271314D02*
X97054054Y-125318933D01*
X98482625Y-125033219D02*
X98292149Y-125033219D01*
X98292149Y-125033219D02*
X98196911Y-125080838D01*
X98196911Y-125080838D02*
X98149292Y-125128457D01*
X98149292Y-125128457D02*
X98054054Y-125271314D01*
X98054054Y-125271314D02*
X98006435Y-125461790D01*
X98006435Y-125461790D02*
X98006435Y-125842742D01*
X98006435Y-125842742D02*
X98054054Y-125937980D01*
X98054054Y-125937980D02*
X98101673Y-125985600D01*
X98101673Y-125985600D02*
X98196911Y-126033219D01*
X98196911Y-126033219D02*
X98387387Y-126033219D01*
X98387387Y-126033219D02*
X98482625Y-125985600D01*
X98482625Y-125985600D02*
X98530244Y-125937980D01*
X98530244Y-125937980D02*
X98577863Y-125842742D01*
X98577863Y-125842742D02*
X98577863Y-125604647D01*
X98577863Y-125604647D02*
X98530244Y-125509409D01*
X98530244Y-125509409D02*
X98482625Y-125461790D01*
X98482625Y-125461790D02*
X98387387Y-125414171D01*
X98387387Y-125414171D02*
X98196911Y-125414171D01*
X98196911Y-125414171D02*
X98101673Y-125461790D01*
X98101673Y-125461790D02*
X98054054Y-125509409D01*
X98054054Y-125509409D02*
X98006435Y-125604647D01*
X87925482Y-125983219D02*
X87354054Y-125983219D01*
X87639768Y-125983219D02*
X87639768Y-124983219D01*
X87639768Y-124983219D02*
X87544530Y-125126076D01*
X87544530Y-125126076D02*
X87449292Y-125221314D01*
X87449292Y-125221314D02*
X87354054Y-125268933D01*
D12*
X109796619Y-115108669D02*
X109796619Y-114442003D01*
X109796619Y-114442003D02*
X110796619Y-114870574D01*
X109749000Y-113346765D02*
X111034714Y-114203907D01*
X109891857Y-113061050D02*
X109844238Y-113013431D01*
X109844238Y-113013431D02*
X109796619Y-112918193D01*
X109796619Y-112918193D02*
X109796619Y-112680098D01*
X109796619Y-112680098D02*
X109844238Y-112584860D01*
X109844238Y-112584860D02*
X109891857Y-112537241D01*
X109891857Y-112537241D02*
X109987095Y-112489622D01*
X109987095Y-112489622D02*
X110082333Y-112489622D01*
X110082333Y-112489622D02*
X110225190Y-112537241D01*
X110225190Y-112537241D02*
X110796619Y-113108669D01*
X110796619Y-113108669D02*
X110796619Y-112489622D01*
X109891857Y-112108669D02*
X109844238Y-112061050D01*
X109844238Y-112061050D02*
X109796619Y-111965812D01*
X109796619Y-111965812D02*
X109796619Y-111727717D01*
X109796619Y-111727717D02*
X109844238Y-111632479D01*
X109844238Y-111632479D02*
X109891857Y-111584860D01*
X109891857Y-111584860D02*
X109987095Y-111537241D01*
X109987095Y-111537241D02*
X110082333Y-111537241D01*
X110082333Y-111537241D02*
X110225190Y-111584860D01*
X110225190Y-111584860D02*
X110796619Y-112156288D01*
X110796619Y-112156288D02*
X110796619Y-111537241D01*
X109749000Y-110394384D02*
X111034714Y-111251526D01*
X109891857Y-110108669D02*
X109844238Y-110061050D01*
X109844238Y-110061050D02*
X109796619Y-109965812D01*
X109796619Y-109965812D02*
X109796619Y-109727717D01*
X109796619Y-109727717D02*
X109844238Y-109632479D01*
X109844238Y-109632479D02*
X109891857Y-109584860D01*
X109891857Y-109584860D02*
X109987095Y-109537241D01*
X109987095Y-109537241D02*
X110082333Y-109537241D01*
X110082333Y-109537241D02*
X110225190Y-109584860D01*
X110225190Y-109584860D02*
X110796619Y-110156288D01*
X110796619Y-110156288D02*
X110796619Y-109537241D01*
X109796619Y-109203907D02*
X109796619Y-108584860D01*
X109796619Y-108584860D02*
X110177571Y-108918193D01*
X110177571Y-108918193D02*
X110177571Y-108775336D01*
X110177571Y-108775336D02*
X110225190Y-108680098D01*
X110225190Y-108680098D02*
X110272809Y-108632479D01*
X110272809Y-108632479D02*
X110368047Y-108584860D01*
X110368047Y-108584860D02*
X110606142Y-108584860D01*
X110606142Y-108584860D02*
X110701380Y-108632479D01*
X110701380Y-108632479D02*
X110749000Y-108680098D01*
X110749000Y-108680098D02*
X110796619Y-108775336D01*
X110796619Y-108775336D02*
X110796619Y-109061050D01*
X110796619Y-109061050D02*
X110749000Y-109156288D01*
X110749000Y-109156288D02*
X110701380Y-109203907D01*
X108091857Y-118361050D02*
X108044238Y-118313431D01*
X108044238Y-118313431D02*
X107996619Y-118218193D01*
X107996619Y-118218193D02*
X107996619Y-117980098D01*
X107996619Y-117980098D02*
X108044238Y-117884860D01*
X108044238Y-117884860D02*
X108091857Y-117837241D01*
X108091857Y-117837241D02*
X108187095Y-117789622D01*
X108187095Y-117789622D02*
X108282333Y-117789622D01*
X108282333Y-117789622D02*
X108425190Y-117837241D01*
X108425190Y-117837241D02*
X108996619Y-118408669D01*
X108996619Y-118408669D02*
X108996619Y-117789622D01*
X108996619Y-116789622D02*
X108520428Y-117122955D01*
X108996619Y-117361050D02*
X107996619Y-117361050D01*
X107996619Y-117361050D02*
X107996619Y-116980098D01*
X107996619Y-116980098D02*
X108044238Y-116884860D01*
X108044238Y-116884860D02*
X108091857Y-116837241D01*
X108091857Y-116837241D02*
X108187095Y-116789622D01*
X108187095Y-116789622D02*
X108329952Y-116789622D01*
X108329952Y-116789622D02*
X108425190Y-116837241D01*
X108425190Y-116837241D02*
X108472809Y-116884860D01*
X108472809Y-116884860D02*
X108520428Y-116980098D01*
X108520428Y-116980098D02*
X108520428Y-117361050D01*
X108091857Y-116408669D02*
X108044238Y-116361050D01*
X108044238Y-116361050D02*
X107996619Y-116265812D01*
X107996619Y-116265812D02*
X107996619Y-116027717D01*
X107996619Y-116027717D02*
X108044238Y-115932479D01*
X108044238Y-115932479D02*
X108091857Y-115884860D01*
X108091857Y-115884860D02*
X108187095Y-115837241D01*
X108187095Y-115837241D02*
X108282333Y-115837241D01*
X108282333Y-115837241D02*
X108425190Y-115884860D01*
X108425190Y-115884860D02*
X108996619Y-116456288D01*
X108996619Y-116456288D02*
X108996619Y-115837241D01*
X109091857Y-115646765D02*
X109091857Y-114884860D01*
X108996619Y-114646764D02*
X107996619Y-114646764D01*
X107996619Y-114646764D02*
X107996619Y-114408669D01*
X107996619Y-114408669D02*
X108044238Y-114265812D01*
X108044238Y-114265812D02*
X108139476Y-114170574D01*
X108139476Y-114170574D02*
X108234714Y-114122955D01*
X108234714Y-114122955D02*
X108425190Y-114075336D01*
X108425190Y-114075336D02*
X108568047Y-114075336D01*
X108568047Y-114075336D02*
X108758523Y-114122955D01*
X108758523Y-114122955D02*
X108853761Y-114170574D01*
X108853761Y-114170574D02*
X108949000Y-114265812D01*
X108949000Y-114265812D02*
X108996619Y-114408669D01*
X108996619Y-114408669D02*
X108996619Y-114646764D01*
X108710904Y-113694383D02*
X108710904Y-113218193D01*
X108996619Y-113789621D02*
X107996619Y-113456288D01*
X107996619Y-113456288D02*
X108996619Y-113122955D01*
X108901380Y-112218193D02*
X108949000Y-112265812D01*
X108949000Y-112265812D02*
X108996619Y-112408669D01*
X108996619Y-112408669D02*
X108996619Y-112503907D01*
X108996619Y-112503907D02*
X108949000Y-112646764D01*
X108949000Y-112646764D02*
X108853761Y-112742002D01*
X108853761Y-112742002D02*
X108758523Y-112789621D01*
X108758523Y-112789621D02*
X108568047Y-112837240D01*
X108568047Y-112837240D02*
X108425190Y-112837240D01*
X108425190Y-112837240D02*
X108234714Y-112789621D01*
X108234714Y-112789621D02*
X108139476Y-112742002D01*
X108139476Y-112742002D02*
X108044238Y-112646764D01*
X108044238Y-112646764D02*
X107996619Y-112503907D01*
X107996619Y-112503907D02*
X107996619Y-112408669D01*
X107996619Y-112408669D02*
X108044238Y-112265812D01*
X108044238Y-112265812D02*
X108091857Y-112218193D01*
X108949000Y-111742002D02*
X108996619Y-111742002D01*
X108996619Y-111742002D02*
X109091857Y-111789621D01*
X109091857Y-111789621D02*
X109139476Y-111837240D01*
X108996619Y-110551526D02*
X108329952Y-110551526D01*
X108520428Y-110551526D02*
X108425190Y-110503907D01*
X108425190Y-110503907D02*
X108377571Y-110456288D01*
X108377571Y-110456288D02*
X108329952Y-110361050D01*
X108329952Y-110361050D02*
X108329952Y-110265812D01*
X108949000Y-109551526D02*
X108996619Y-109646764D01*
X108996619Y-109646764D02*
X108996619Y-109837240D01*
X108996619Y-109837240D02*
X108949000Y-109932478D01*
X108949000Y-109932478D02*
X108853761Y-109980097D01*
X108853761Y-109980097D02*
X108472809Y-109980097D01*
X108472809Y-109980097D02*
X108377571Y-109932478D01*
X108377571Y-109932478D02*
X108329952Y-109837240D01*
X108329952Y-109837240D02*
X108329952Y-109646764D01*
X108329952Y-109646764D02*
X108377571Y-109551526D01*
X108377571Y-109551526D02*
X108472809Y-109503907D01*
X108472809Y-109503907D02*
X108568047Y-109503907D01*
X108568047Y-109503907D02*
X108663285Y-109980097D01*
X108329952Y-109170573D02*
X108996619Y-108932478D01*
X108996619Y-108932478D02*
X108329952Y-108694383D01*
X107996619Y-108122954D02*
X107996619Y-108027716D01*
X107996619Y-108027716D02*
X108044238Y-107932478D01*
X108044238Y-107932478D02*
X108091857Y-107884859D01*
X108091857Y-107884859D02*
X108187095Y-107837240D01*
X108187095Y-107837240D02*
X108377571Y-107789621D01*
X108377571Y-107789621D02*
X108615666Y-107789621D01*
X108615666Y-107789621D02*
X108806142Y-107837240D01*
X108806142Y-107837240D02*
X108901380Y-107884859D01*
X108901380Y-107884859D02*
X108949000Y-107932478D01*
X108949000Y-107932478D02*
X108996619Y-108027716D01*
X108996619Y-108027716D02*
X108996619Y-108122954D01*
X108996619Y-108122954D02*
X108949000Y-108218192D01*
X108949000Y-108218192D02*
X108901380Y-108265811D01*
X108901380Y-108265811D02*
X108806142Y-108313430D01*
X108806142Y-108313430D02*
X108615666Y-108361049D01*
X108615666Y-108361049D02*
X108377571Y-108361049D01*
X108377571Y-108361049D02*
X108187095Y-108313430D01*
X108187095Y-108313430D02*
X108091857Y-108265811D01*
X108091857Y-108265811D02*
X108044238Y-108218192D01*
X108044238Y-108218192D02*
X107996619Y-108122954D01*
X108901380Y-107361049D02*
X108949000Y-107313430D01*
X108949000Y-107313430D02*
X108996619Y-107361049D01*
X108996619Y-107361049D02*
X108949000Y-107408668D01*
X108949000Y-107408668D02*
X108901380Y-107361049D01*
X108901380Y-107361049D02*
X108996619Y-107361049D01*
X107996619Y-106980097D02*
X107996619Y-106361050D01*
X107996619Y-106361050D02*
X108377571Y-106694383D01*
X108377571Y-106694383D02*
X108377571Y-106551526D01*
X108377571Y-106551526D02*
X108425190Y-106456288D01*
X108425190Y-106456288D02*
X108472809Y-106408669D01*
X108472809Y-106408669D02*
X108568047Y-106361050D01*
X108568047Y-106361050D02*
X108806142Y-106361050D01*
X108806142Y-106361050D02*
X108901380Y-106408669D01*
X108901380Y-106408669D02*
X108949000Y-106456288D01*
X108949000Y-106456288D02*
X108996619Y-106551526D01*
X108996619Y-106551526D02*
X108996619Y-106837240D01*
X108996619Y-106837240D02*
X108949000Y-106932478D01*
X108949000Y-106932478D02*
X108901380Y-106980097D01*
D11*
X92830244Y-125366552D02*
X92830244Y-126033219D01*
X92592149Y-124985600D02*
X92354054Y-125699885D01*
X92354054Y-125699885D02*
X92973101Y-125699885D01*
X84301673Y-125887980D02*
X84349292Y-125935600D01*
X84349292Y-125935600D02*
X84301673Y-125983219D01*
X84301673Y-125983219D02*
X84254054Y-125935600D01*
X84254054Y-125935600D02*
X84301673Y-125887980D01*
X84301673Y-125887980D02*
X84301673Y-125983219D01*
X85254053Y-124983219D02*
X84777863Y-124983219D01*
X84777863Y-124983219D02*
X84730244Y-125459409D01*
X84730244Y-125459409D02*
X84777863Y-125411790D01*
X84777863Y-125411790D02*
X84873101Y-125364171D01*
X84873101Y-125364171D02*
X85111196Y-125364171D01*
X85111196Y-125364171D02*
X85206434Y-125411790D01*
X85206434Y-125411790D02*
X85254053Y-125459409D01*
X85254053Y-125459409D02*
X85301672Y-125554647D01*
X85301672Y-125554647D02*
X85301672Y-125792742D01*
X85301672Y-125792742D02*
X85254053Y-125887980D01*
X85254053Y-125887980D02*
X85206434Y-125935600D01*
X85206434Y-125935600D02*
X85111196Y-125983219D01*
X85111196Y-125983219D02*
X84873101Y-125983219D01*
X84873101Y-125983219D02*
X84777863Y-125935600D01*
X84777863Y-125935600D02*
X84730244Y-125887980D01*
X89754054Y-125078457D02*
X89801673Y-125030838D01*
X89801673Y-125030838D02*
X89896911Y-124983219D01*
X89896911Y-124983219D02*
X90135006Y-124983219D01*
X90135006Y-124983219D02*
X90230244Y-125030838D01*
X90230244Y-125030838D02*
X90277863Y-125078457D01*
X90277863Y-125078457D02*
X90325482Y-125173695D01*
X90325482Y-125173695D02*
X90325482Y-125268933D01*
X90325482Y-125268933D02*
X90277863Y-125411790D01*
X90277863Y-125411790D02*
X89706435Y-125983219D01*
X89706435Y-125983219D02*
X90325482Y-125983219D01*
D13*
X95186819Y-108282666D02*
X94710628Y-108615999D01*
X95186819Y-108854094D02*
X94186819Y-108854094D01*
X94186819Y-108854094D02*
X94186819Y-108473142D01*
X94186819Y-108473142D02*
X94234438Y-108377904D01*
X94234438Y-108377904D02*
X94282057Y-108330285D01*
X94282057Y-108330285D02*
X94377295Y-108282666D01*
X94377295Y-108282666D02*
X94520152Y-108282666D01*
X94520152Y-108282666D02*
X94615390Y-108330285D01*
X94615390Y-108330285D02*
X94663009Y-108377904D01*
X94663009Y-108377904D02*
X94710628Y-108473142D01*
X94710628Y-108473142D02*
X94710628Y-108854094D01*
X95186819Y-107330285D02*
X95186819Y-107901713D01*
X95186819Y-107615999D02*
X94186819Y-107615999D01*
X94186819Y-107615999D02*
X94329676Y-107711237D01*
X94329676Y-107711237D02*
X94424914Y-107806475D01*
X94424914Y-107806475D02*
X94472533Y-107901713D01*
X100022595Y-103308319D02*
X100022595Y-104117842D01*
X100022595Y-104117842D02*
X100070214Y-104213080D01*
X100070214Y-104213080D02*
X100117833Y-104260700D01*
X100117833Y-104260700D02*
X100213071Y-104308319D01*
X100213071Y-104308319D02*
X100403547Y-104308319D01*
X100403547Y-104308319D02*
X100498785Y-104260700D01*
X100498785Y-104260700D02*
X100546404Y-104213080D01*
X100546404Y-104213080D02*
X100594023Y-104117842D01*
X100594023Y-104117842D02*
X100594023Y-103308319D01*
X101594023Y-104308319D02*
X101022595Y-104308319D01*
X101308309Y-104308319D02*
X101308309Y-103308319D01*
X101308309Y-103308319D02*
X101213071Y-103451176D01*
X101213071Y-103451176D02*
X101117833Y-103546414D01*
X101117833Y-103546414D02*
X101022595Y-103594033D01*
X97919080Y-106757666D02*
X97966700Y-106805285D01*
X97966700Y-106805285D02*
X98014319Y-106948142D01*
X98014319Y-106948142D02*
X98014319Y-107043380D01*
X98014319Y-107043380D02*
X97966700Y-107186237D01*
X97966700Y-107186237D02*
X97871461Y-107281475D01*
X97871461Y-107281475D02*
X97776223Y-107329094D01*
X97776223Y-107329094D02*
X97585747Y-107376713D01*
X97585747Y-107376713D02*
X97442890Y-107376713D01*
X97442890Y-107376713D02*
X97252414Y-107329094D01*
X97252414Y-107329094D02*
X97157176Y-107281475D01*
X97157176Y-107281475D02*
X97061938Y-107186237D01*
X97061938Y-107186237D02*
X97014319Y-107043380D01*
X97014319Y-107043380D02*
X97014319Y-106948142D01*
X97014319Y-106948142D02*
X97061938Y-106805285D01*
X97061938Y-106805285D02*
X97109557Y-106757666D01*
X97109557Y-106376713D02*
X97061938Y-106329094D01*
X97061938Y-106329094D02*
X97014319Y-106233856D01*
X97014319Y-106233856D02*
X97014319Y-105995761D01*
X97014319Y-105995761D02*
X97061938Y-105900523D01*
X97061938Y-105900523D02*
X97109557Y-105852904D01*
X97109557Y-105852904D02*
X97204795Y-105805285D01*
X97204795Y-105805285D02*
X97300033Y-105805285D01*
X97300033Y-105805285D02*
X97442890Y-105852904D01*
X97442890Y-105852904D02*
X98014319Y-106424332D01*
X98014319Y-106424332D02*
X98014319Y-105805285D01*
X80586819Y-113806476D02*
X80110628Y-114139809D01*
X80586819Y-114377904D02*
X79586819Y-114377904D01*
X79586819Y-114377904D02*
X79586819Y-113996952D01*
X79586819Y-113996952D02*
X79634438Y-113901714D01*
X79634438Y-113901714D02*
X79682057Y-113854095D01*
X79682057Y-113854095D02*
X79777295Y-113806476D01*
X79777295Y-113806476D02*
X79920152Y-113806476D01*
X79920152Y-113806476D02*
X80015390Y-113854095D01*
X80015390Y-113854095D02*
X80063009Y-113901714D01*
X80063009Y-113901714D02*
X80110628Y-113996952D01*
X80110628Y-113996952D02*
X80110628Y-114377904D01*
X80586819Y-113377904D02*
X79586819Y-113377904D01*
X79586819Y-113377904D02*
X80586819Y-112806476D01*
X80586819Y-112806476D02*
X79586819Y-112806476D01*
X79682057Y-112377904D02*
X79634438Y-112330285D01*
X79634438Y-112330285D02*
X79586819Y-112235047D01*
X79586819Y-112235047D02*
X79586819Y-111996952D01*
X79586819Y-111996952D02*
X79634438Y-111901714D01*
X79634438Y-111901714D02*
X79682057Y-111854095D01*
X79682057Y-111854095D02*
X79777295Y-111806476D01*
X79777295Y-111806476D02*
X79872533Y-111806476D01*
X79872533Y-111806476D02*
X80015390Y-111854095D01*
X80015390Y-111854095D02*
X80586819Y-112425523D01*
X80586819Y-112425523D02*
X80586819Y-111806476D01*
X98665333Y-110775580D02*
X98617714Y-110823200D01*
X98617714Y-110823200D02*
X98474857Y-110870819D01*
X98474857Y-110870819D02*
X98379619Y-110870819D01*
X98379619Y-110870819D02*
X98236762Y-110823200D01*
X98236762Y-110823200D02*
X98141524Y-110727961D01*
X98141524Y-110727961D02*
X98093905Y-110632723D01*
X98093905Y-110632723D02*
X98046286Y-110442247D01*
X98046286Y-110442247D02*
X98046286Y-110299390D01*
X98046286Y-110299390D02*
X98093905Y-110108914D01*
X98093905Y-110108914D02*
X98141524Y-110013676D01*
X98141524Y-110013676D02*
X98236762Y-109918438D01*
X98236762Y-109918438D02*
X98379619Y-109870819D01*
X98379619Y-109870819D02*
X98474857Y-109870819D01*
X98474857Y-109870819D02*
X98617714Y-109918438D01*
X98617714Y-109918438D02*
X98665333Y-109966057D01*
X98998667Y-109870819D02*
X99617714Y-109870819D01*
X99617714Y-109870819D02*
X99284381Y-110251771D01*
X99284381Y-110251771D02*
X99427238Y-110251771D01*
X99427238Y-110251771D02*
X99522476Y-110299390D01*
X99522476Y-110299390D02*
X99570095Y-110347009D01*
X99570095Y-110347009D02*
X99617714Y-110442247D01*
X99617714Y-110442247D02*
X99617714Y-110680342D01*
X99617714Y-110680342D02*
X99570095Y-110775580D01*
X99570095Y-110775580D02*
X99522476Y-110823200D01*
X99522476Y-110823200D02*
X99427238Y-110870819D01*
X99427238Y-110870819D02*
X99141524Y-110870819D01*
X99141524Y-110870819D02*
X99046286Y-110823200D01*
X99046286Y-110823200D02*
X98998667Y-110775580D01*
X83069200Y-121039332D02*
X83116819Y-120896475D01*
X83116819Y-120896475D02*
X83116819Y-120658380D01*
X83116819Y-120658380D02*
X83069200Y-120563142D01*
X83069200Y-120563142D02*
X83021580Y-120515523D01*
X83021580Y-120515523D02*
X82926342Y-120467904D01*
X82926342Y-120467904D02*
X82831104Y-120467904D01*
X82831104Y-120467904D02*
X82735866Y-120515523D01*
X82735866Y-120515523D02*
X82688247Y-120563142D01*
X82688247Y-120563142D02*
X82640628Y-120658380D01*
X82640628Y-120658380D02*
X82593009Y-120848856D01*
X82593009Y-120848856D02*
X82545390Y-120944094D01*
X82545390Y-120944094D02*
X82497771Y-120991713D01*
X82497771Y-120991713D02*
X82402533Y-121039332D01*
X82402533Y-121039332D02*
X82307295Y-121039332D01*
X82307295Y-121039332D02*
X82212057Y-120991713D01*
X82212057Y-120991713D02*
X82164438Y-120944094D01*
X82164438Y-120944094D02*
X82116819Y-120848856D01*
X82116819Y-120848856D02*
X82116819Y-120610761D01*
X82116819Y-120610761D02*
X82164438Y-120467904D01*
X82116819Y-120134570D02*
X83116819Y-119896475D01*
X83116819Y-119896475D02*
X82402533Y-119705999D01*
X82402533Y-119705999D02*
X83116819Y-119515523D01*
X83116819Y-119515523D02*
X82116819Y-119277428D01*
X83116819Y-118372666D02*
X83116819Y-118944094D01*
X83116819Y-118658380D02*
X82116819Y-118658380D01*
X82116819Y-118658380D02*
X82259676Y-118753618D01*
X82259676Y-118753618D02*
X82354914Y-118848856D01*
X82354914Y-118848856D02*
X82402533Y-118944094D01*
X100565333Y-114070819D02*
X100232000Y-113594628D01*
X99993905Y-114070819D02*
X99993905Y-113070819D01*
X99993905Y-113070819D02*
X100374857Y-113070819D01*
X100374857Y-113070819D02*
X100470095Y-113118438D01*
X100470095Y-113118438D02*
X100517714Y-113166057D01*
X100517714Y-113166057D02*
X100565333Y-113261295D01*
X100565333Y-113261295D02*
X100565333Y-113404152D01*
X100565333Y-113404152D02*
X100517714Y-113499390D01*
X100517714Y-113499390D02*
X100470095Y-113547009D01*
X100470095Y-113547009D02*
X100374857Y-113594628D01*
X100374857Y-113594628D02*
X99993905Y-113594628D01*
X100898667Y-113070819D02*
X101517714Y-113070819D01*
X101517714Y-113070819D02*
X101184381Y-113451771D01*
X101184381Y-113451771D02*
X101327238Y-113451771D01*
X101327238Y-113451771D02*
X101422476Y-113499390D01*
X101422476Y-113499390D02*
X101470095Y-113547009D01*
X101470095Y-113547009D02*
X101517714Y-113642247D01*
X101517714Y-113642247D02*
X101517714Y-113880342D01*
X101517714Y-113880342D02*
X101470095Y-113975580D01*
X101470095Y-113975580D02*
X101422476Y-114023200D01*
X101422476Y-114023200D02*
X101327238Y-114070819D01*
X101327238Y-114070819D02*
X101041524Y-114070819D01*
X101041524Y-114070819D02*
X100946286Y-114023200D01*
X100946286Y-114023200D02*
X100898667Y-113975580D01*
X80886819Y-101906476D02*
X80410628Y-102239809D01*
X80886819Y-102477904D02*
X79886819Y-102477904D01*
X79886819Y-102477904D02*
X79886819Y-102096952D01*
X79886819Y-102096952D02*
X79934438Y-102001714D01*
X79934438Y-102001714D02*
X79982057Y-101954095D01*
X79982057Y-101954095D02*
X80077295Y-101906476D01*
X80077295Y-101906476D02*
X80220152Y-101906476D01*
X80220152Y-101906476D02*
X80315390Y-101954095D01*
X80315390Y-101954095D02*
X80363009Y-102001714D01*
X80363009Y-102001714D02*
X80410628Y-102096952D01*
X80410628Y-102096952D02*
X80410628Y-102477904D01*
X80886819Y-101477904D02*
X79886819Y-101477904D01*
X79886819Y-101477904D02*
X80886819Y-100906476D01*
X80886819Y-100906476D02*
X79886819Y-100906476D01*
X80886819Y-99906476D02*
X80886819Y-100477904D01*
X80886819Y-100192190D02*
X79886819Y-100192190D01*
X79886819Y-100192190D02*
X80029676Y-100287428D01*
X80029676Y-100287428D02*
X80124914Y-100382666D01*
X80124914Y-100382666D02*
X80172533Y-100477904D01*
X107686819Y-112782666D02*
X106686819Y-112782666D01*
X106686819Y-112782666D02*
X106686819Y-112544571D01*
X106686819Y-112544571D02*
X106734438Y-112401714D01*
X106734438Y-112401714D02*
X106829676Y-112306476D01*
X106829676Y-112306476D02*
X106924914Y-112258857D01*
X106924914Y-112258857D02*
X107115390Y-112211238D01*
X107115390Y-112211238D02*
X107258247Y-112211238D01*
X107258247Y-112211238D02*
X107448723Y-112258857D01*
X107448723Y-112258857D02*
X107543961Y-112306476D01*
X107543961Y-112306476D02*
X107639200Y-112401714D01*
X107639200Y-112401714D02*
X107686819Y-112544571D01*
X107686819Y-112544571D02*
X107686819Y-112782666D01*
X107401104Y-111830285D02*
X107401104Y-111354095D01*
X107686819Y-111925523D02*
X106686819Y-111592190D01*
X106686819Y-111592190D02*
X107686819Y-111258857D01*
X107591580Y-110354095D02*
X107639200Y-110401714D01*
X107639200Y-110401714D02*
X107686819Y-110544571D01*
X107686819Y-110544571D02*
X107686819Y-110639809D01*
X107686819Y-110639809D02*
X107639200Y-110782666D01*
X107639200Y-110782666D02*
X107543961Y-110877904D01*
X107543961Y-110877904D02*
X107448723Y-110925523D01*
X107448723Y-110925523D02*
X107258247Y-110973142D01*
X107258247Y-110973142D02*
X107115390Y-110973142D01*
X107115390Y-110973142D02*
X106924914Y-110925523D01*
X106924914Y-110925523D02*
X106829676Y-110877904D01*
X106829676Y-110877904D02*
X106734438Y-110782666D01*
X106734438Y-110782666D02*
X106686819Y-110639809D01*
X106686819Y-110639809D02*
X106686819Y-110544571D01*
X106686819Y-110544571D02*
X106734438Y-110401714D01*
X106734438Y-110401714D02*
X106782057Y-110354095D01*
X107686819Y-109401714D02*
X107686819Y-109973142D01*
X107686819Y-109687428D02*
X106686819Y-109687428D01*
X106686819Y-109687428D02*
X106829676Y-109782666D01*
X106829676Y-109782666D02*
X106924914Y-109877904D01*
X106924914Y-109877904D02*
X106972533Y-109973142D01*
X83458705Y-108045166D02*
X83506325Y-108092785D01*
X83506325Y-108092785D02*
X83553944Y-108235642D01*
X83553944Y-108235642D02*
X83553944Y-108330880D01*
X83553944Y-108330880D02*
X83506325Y-108473737D01*
X83506325Y-108473737D02*
X83411086Y-108568975D01*
X83411086Y-108568975D02*
X83315848Y-108616594D01*
X83315848Y-108616594D02*
X83125372Y-108664213D01*
X83125372Y-108664213D02*
X82982515Y-108664213D01*
X82982515Y-108664213D02*
X82792039Y-108616594D01*
X82792039Y-108616594D02*
X82696801Y-108568975D01*
X82696801Y-108568975D02*
X82601563Y-108473737D01*
X82601563Y-108473737D02*
X82553944Y-108330880D01*
X82553944Y-108330880D02*
X82553944Y-108235642D01*
X82553944Y-108235642D02*
X82601563Y-108092785D01*
X82601563Y-108092785D02*
X82649182Y-108045166D01*
X82887277Y-107188023D02*
X83553944Y-107188023D01*
X82506325Y-107426118D02*
X83220610Y-107664213D01*
X83220610Y-107664213D02*
X83220610Y-107045166D01*
X101334438Y-124954095D02*
X101286819Y-125049333D01*
X101286819Y-125049333D02*
X101286819Y-125192190D01*
X101286819Y-125192190D02*
X101334438Y-125335047D01*
X101334438Y-125335047D02*
X101429676Y-125430285D01*
X101429676Y-125430285D02*
X101524914Y-125477904D01*
X101524914Y-125477904D02*
X101715390Y-125525523D01*
X101715390Y-125525523D02*
X101858247Y-125525523D01*
X101858247Y-125525523D02*
X102048723Y-125477904D01*
X102048723Y-125477904D02*
X102143961Y-125430285D01*
X102143961Y-125430285D02*
X102239200Y-125335047D01*
X102239200Y-125335047D02*
X102286819Y-125192190D01*
X102286819Y-125192190D02*
X102286819Y-125096952D01*
X102286819Y-125096952D02*
X102239200Y-124954095D01*
X102239200Y-124954095D02*
X102191580Y-124906476D01*
X102191580Y-124906476D02*
X101858247Y-124906476D01*
X101858247Y-124906476D02*
X101858247Y-125096952D01*
X102286819Y-124477904D02*
X101286819Y-124477904D01*
X101286819Y-124477904D02*
X102286819Y-123906476D01*
X102286819Y-123906476D02*
X101286819Y-123906476D01*
X102286819Y-123430285D02*
X101286819Y-123430285D01*
X101286819Y-123430285D02*
X101286819Y-123192190D01*
X101286819Y-123192190D02*
X101334438Y-123049333D01*
X101334438Y-123049333D02*
X101429676Y-122954095D01*
X101429676Y-122954095D02*
X101524914Y-122906476D01*
X101524914Y-122906476D02*
X101715390Y-122858857D01*
X101715390Y-122858857D02*
X101858247Y-122858857D01*
X101858247Y-122858857D02*
X102048723Y-122906476D01*
X102048723Y-122906476D02*
X102143961Y-122954095D01*
X102143961Y-122954095D02*
X102239200Y-123049333D01*
X102239200Y-123049333D02*
X102286819Y-123192190D01*
X102286819Y-123192190D02*
X102286819Y-123430285D01*
X102286819Y-121906476D02*
X102286819Y-122477904D01*
X102286819Y-122192190D02*
X101286819Y-122192190D01*
X101286819Y-122192190D02*
X101429676Y-122287428D01*
X101429676Y-122287428D02*
X101524914Y-122382666D01*
X101524914Y-122382666D02*
X101572533Y-122477904D01*
X98765333Y-109345819D02*
X98432000Y-108869628D01*
X98193905Y-109345819D02*
X98193905Y-108345819D01*
X98193905Y-108345819D02*
X98574857Y-108345819D01*
X98574857Y-108345819D02*
X98670095Y-108393438D01*
X98670095Y-108393438D02*
X98717714Y-108441057D01*
X98717714Y-108441057D02*
X98765333Y-108536295D01*
X98765333Y-108536295D02*
X98765333Y-108679152D01*
X98765333Y-108679152D02*
X98717714Y-108774390D01*
X98717714Y-108774390D02*
X98670095Y-108822009D01*
X98670095Y-108822009D02*
X98574857Y-108869628D01*
X98574857Y-108869628D02*
X98193905Y-108869628D01*
X99146286Y-108441057D02*
X99193905Y-108393438D01*
X99193905Y-108393438D02*
X99289143Y-108345819D01*
X99289143Y-108345819D02*
X99527238Y-108345819D01*
X99527238Y-108345819D02*
X99622476Y-108393438D01*
X99622476Y-108393438D02*
X99670095Y-108441057D01*
X99670095Y-108441057D02*
X99717714Y-108536295D01*
X99717714Y-108536295D02*
X99717714Y-108631533D01*
X99717714Y-108631533D02*
X99670095Y-108774390D01*
X99670095Y-108774390D02*
X99098667Y-109345819D01*
X99098667Y-109345819D02*
X99717714Y-109345819D01*
X82467220Y-109558319D02*
X82467220Y-110367842D01*
X82467220Y-110367842D02*
X82514839Y-110463080D01*
X82514839Y-110463080D02*
X82562458Y-110510700D01*
X82562458Y-110510700D02*
X82657696Y-110558319D01*
X82657696Y-110558319D02*
X82848172Y-110558319D01*
X82848172Y-110558319D02*
X82943410Y-110510700D01*
X82943410Y-110510700D02*
X82991029Y-110463080D01*
X82991029Y-110463080D02*
X83038648Y-110367842D01*
X83038648Y-110367842D02*
X83038648Y-109558319D01*
X83467220Y-109653557D02*
X83514839Y-109605938D01*
X83514839Y-109605938D02*
X83610077Y-109558319D01*
X83610077Y-109558319D02*
X83848172Y-109558319D01*
X83848172Y-109558319D02*
X83943410Y-109605938D01*
X83943410Y-109605938D02*
X83991029Y-109653557D01*
X83991029Y-109653557D02*
X84038648Y-109748795D01*
X84038648Y-109748795D02*
X84038648Y-109844033D01*
X84038648Y-109844033D02*
X83991029Y-109986890D01*
X83991029Y-109986890D02*
X83419601Y-110558319D01*
X83419601Y-110558319D02*
X84038648Y-110558319D01*
X109470095Y-120320819D02*
X109470095Y-119320819D01*
X109470095Y-119797009D02*
X110041523Y-119797009D01*
X110041523Y-120320819D02*
X110041523Y-119320819D01*
X111041523Y-120320819D02*
X110470095Y-120320819D01*
X110755809Y-120320819D02*
X110755809Y-119320819D01*
X110755809Y-119320819D02*
X110660571Y-119463676D01*
X110660571Y-119463676D02*
X110565333Y-119558914D01*
X110565333Y-119558914D02*
X110470095Y-119606533D01*
X104592833Y-104313080D02*
X104545214Y-104360700D01*
X104545214Y-104360700D02*
X104402357Y-104408319D01*
X104402357Y-104408319D02*
X104307119Y-104408319D01*
X104307119Y-104408319D02*
X104164262Y-104360700D01*
X104164262Y-104360700D02*
X104069024Y-104265461D01*
X104069024Y-104265461D02*
X104021405Y-104170223D01*
X104021405Y-104170223D02*
X103973786Y-103979747D01*
X103973786Y-103979747D02*
X103973786Y-103836890D01*
X103973786Y-103836890D02*
X104021405Y-103646414D01*
X104021405Y-103646414D02*
X104069024Y-103551176D01*
X104069024Y-103551176D02*
X104164262Y-103455938D01*
X104164262Y-103455938D02*
X104307119Y-103408319D01*
X104307119Y-103408319D02*
X104402357Y-103408319D01*
X104402357Y-103408319D02*
X104545214Y-103455938D01*
X104545214Y-103455938D02*
X104592833Y-103503557D01*
X105545214Y-104408319D02*
X104973786Y-104408319D01*
X105259500Y-104408319D02*
X105259500Y-103408319D01*
X105259500Y-103408319D02*
X105164262Y-103551176D01*
X105164262Y-103551176D02*
X105069024Y-103646414D01*
X105069024Y-103646414D02*
X104973786Y-103694033D01*
X106698666Y-120970819D02*
X106698666Y-121685104D01*
X106698666Y-121685104D02*
X106651047Y-121827961D01*
X106651047Y-121827961D02*
X106555809Y-121923200D01*
X106555809Y-121923200D02*
X106412952Y-121970819D01*
X106412952Y-121970819D02*
X106317714Y-121970819D01*
X107698666Y-121970819D02*
X107127238Y-121970819D01*
X107412952Y-121970819D02*
X107412952Y-120970819D01*
X107412952Y-120970819D02*
X107317714Y-121113676D01*
X107317714Y-121113676D02*
X107222476Y-121208914D01*
X107222476Y-121208914D02*
X107127238Y-121256533D01*
D14*
%TO.C,R1*%
X96554500Y-107561276D02*
X96554500Y-108070724D01*
X95509500Y-107561276D02*
X95509500Y-108070724D01*
%TO.C,U1*%
X101897000Y-104693500D02*
X100097000Y-104693500D01*
X101897000Y-104693500D02*
X102697000Y-104693500D01*
X101897000Y-107813500D02*
X101097000Y-107813500D01*
X101897000Y-107813500D02*
X102697000Y-107813500D01*
%TO.C,C2*%
X98449500Y-106437267D02*
X98449500Y-106144733D01*
X99469500Y-106437267D02*
X99469500Y-106144733D01*
%TO.C,RN2*%
X81012000Y-111616000D02*
X81012000Y-114416000D01*
X81012000Y-114416000D02*
X99132000Y-114416000D01*
X83722000Y-111616000D02*
X83722000Y-114416000D01*
X99132000Y-111616000D02*
X81012000Y-111616000D01*
X99132000Y-114416000D02*
X99132000Y-111616000D01*
%TO.C,C3*%
X101413233Y-109981000D02*
X101705767Y-109981000D01*
X101413233Y-111001000D02*
X101705767Y-111001000D01*
%TO.C,SW1*%
X83662000Y-122356000D02*
X99022000Y-122356000D01*
X99022000Y-122356000D02*
X99022000Y-117056000D01*
X83662000Y-120706000D02*
X83662000Y-122356000D01*
X83662000Y-117056000D02*
X83662000Y-118706000D01*
X99022000Y-117056000D02*
X83662000Y-117056000D01*
X83662000Y-120706000D02*
G75*
G03*
X83662000Y-118706000I0J1000000D01*
G01*
%TO.C,R3*%
X101304776Y-111568500D02*
X101814224Y-111568500D01*
X101304776Y-112613500D02*
X101814224Y-112613500D01*
%TO.C,RN1*%
X81372000Y-99916000D02*
X81372000Y-102716000D01*
X81372000Y-102716000D02*
X107112000Y-102716000D01*
X84082000Y-99916000D02*
X84082000Y-102716000D01*
X107112000Y-99916000D02*
X81372000Y-99916000D01*
X107112000Y-102716000D02*
X107112000Y-99916000D01*
%TO.C,DAC1*%
X106132000Y-111316000D02*
G75*
G03*
X106132000Y-111316000I-1200000J0D01*
G01*
%TO.C,C4*%
X83549125Y-104982233D02*
X83549125Y-105274767D01*
X82529125Y-104982233D02*
X82529125Y-105274767D01*
%TO.C,GND1*%
X105532000Y-124216000D02*
G75*
G03*
X105532000Y-124216000I-1200000J0D01*
G01*
%TO.C,R2*%
X101814224Y-109388500D02*
X101304776Y-109388500D01*
X101814224Y-108343500D02*
X101304776Y-108343500D01*
%TO.C,U2*%
X84394125Y-107103500D02*
X84394125Y-110553500D01*
X84394125Y-107103500D02*
X84394125Y-105153500D01*
X93264125Y-107103500D02*
X93264125Y-109053500D01*
X93264125Y-107103500D02*
X93264125Y-105153500D01*
%TO.C,C1*%
X105269500Y-106057233D02*
X105269500Y-106349767D01*
X104249500Y-106057233D02*
X104249500Y-106349767D01*
%TO.C,J1*%
X105662000Y-121926000D02*
X104332000Y-121926000D01*
X105662000Y-120596000D02*
X105662000Y-121926000D01*
X105662000Y-119326000D02*
X105662000Y-114186000D01*
X105662000Y-119326000D02*
X103002000Y-119326000D01*
X105662000Y-114186000D02*
X103002000Y-114186000D01*
X103002000Y-119326000D02*
X103002000Y-114186000D01*
%TD*%
%LPC*%
D15*
%TO.C,R1*%
X96032000Y-106903500D03*
X96032000Y-108728500D03*
%TD*%
D16*
%TO.C,U1*%
X100759500Y-105303500D03*
X100759500Y-106253500D03*
X100759500Y-107203500D03*
X103034500Y-107203500D03*
X103034500Y-105303500D03*
%TD*%
D17*
%TO.C,C2*%
X98959500Y-107153500D03*
X98959500Y-105428500D03*
%TD*%
D18*
%TO.C,RN2*%
X82452000Y-113016000D03*
D19*
X84992000Y-113016000D03*
X87532000Y-113016000D03*
X90072000Y-113016000D03*
X92612000Y-113016000D03*
X95152000Y-113016000D03*
X97692000Y-113016000D03*
%TD*%
D20*
%TO.C,C3*%
X100697000Y-110491000D03*
X102422000Y-110491000D03*
%TD*%
D18*
%TO.C,SW1*%
X84992000Y-123516000D03*
D19*
X87532000Y-123516000D03*
X90072000Y-123516000D03*
X92612000Y-123516000D03*
X95152000Y-123516000D03*
X97692000Y-123516000D03*
X97692000Y-115896000D03*
X95152000Y-115896000D03*
X92612000Y-115896000D03*
X90072000Y-115896000D03*
X87532000Y-115896000D03*
X84992000Y-115896000D03*
%TD*%
D21*
%TO.C,R3*%
X100647000Y-112091000D03*
X102472000Y-112091000D03*
%TD*%
D18*
%TO.C,RN1*%
X82812000Y-101316000D03*
D19*
X85352000Y-101316000D03*
X87892000Y-101316000D03*
X90432000Y-101316000D03*
X92972000Y-101316000D03*
X95512000Y-101316000D03*
X98052000Y-101316000D03*
X100592000Y-101316000D03*
X103132000Y-101316000D03*
X105672000Y-101316000D03*
%TD*%
D22*
%TO.C,DAC1*%
X104932000Y-111316000D03*
%TD*%
D23*
%TO.C,H2*%
X110232000Y-102516000D03*
%TD*%
D24*
%TO.C,C4*%
X83039125Y-104266000D03*
X83039125Y-105991000D03*
%TD*%
D22*
%TO.C,GND1*%
X104332000Y-124216000D03*
%TD*%
D25*
%TO.C,R2*%
X102472000Y-108866000D03*
X100647000Y-108866000D03*
%TD*%
D26*
%TO.C,U2*%
X85019125Y-109578500D03*
X86289125Y-109578500D03*
X87559125Y-109578500D03*
X88829125Y-109578500D03*
X90099125Y-109578500D03*
X91369125Y-109578500D03*
X92639125Y-109578500D03*
X92639125Y-104628500D03*
X91369125Y-104628500D03*
X90099125Y-104628500D03*
X88829125Y-104628500D03*
X87559125Y-104628500D03*
X86289125Y-104628500D03*
X85019125Y-104628500D03*
%TD*%
D23*
%TO.C,H1*%
X110232000Y-123116000D03*
%TD*%
D24*
%TO.C,C1*%
X104759500Y-105341000D03*
X104759500Y-107066000D03*
%TD*%
D27*
%TO.C,J1*%
X104332000Y-120596000D03*
D28*
X104332000Y-118056000D03*
X104332000Y-115516000D03*
%TD*%
%LPD*%
M02*
