M48
; DRILL file {KiCad 7.0.6-7.0.6~ubuntu22.04.1} date Thu 03 Aug 2023 12:39:26 PM PDT
; FORMAT={-:-/ absolute / inch / decimal}
; #@! TF.CreationDate,2023-08-03T12:39:26-07:00
; #@! TF.GenerationSoftware,Kicad,Pcbnew,7.0.6-7.0.6~ubuntu22.04.1
; #@! TF.FileFunction,Plated,1,2,PTH
FMAT,2
INCH
; #@! TA.AperFunction,Plated,PTH,ViaDrill
T1C0.0157
; #@! TA.AperFunction,Plated,PTH,ComponentDrill
T2C0.0315
; #@! TA.AperFunction,Plated,PTH,ComponentDrill
T3C0.0394
; #@! TA.AperFunction,Plated,PTH,ComponentDrill
T4C0.1063
%
G90
G05
T1
X3.2139Y-4.166
X3.2178Y-4.2979
X3.2611Y-4.6384
X3.3755Y-4.2428
X3.3991Y-4.1816
X3.4028Y-4.7329
X3.4972Y-4.1856
X3.5957Y-4.1817
X3.6904Y-4.3136
X3.7139Y-4.0754
X3.7178Y-4.2014
X3.7178Y-4.7329
X3.7608Y-4.1161
X3.8123Y-4.1463
X3.8359Y-4.2526
X3.9039Y-4.099
X3.9383Y-4.4967
X4.0456Y-4.1837
X4.1076Y-4.4573
X4.1254Y-4.2747
X4.2139Y-4.1699
T2
X3.2461Y-4.4494
X3.2603Y-3.9888
X3.3461Y-4.4494
X3.3461Y-4.5628
X3.3461Y-4.8628
X3.3603Y-3.9888
X3.4461Y-4.4494
X3.4461Y-4.5628
X3.4461Y-4.8628
X3.4603Y-3.9888
X3.5461Y-4.4494
X3.5461Y-4.5628
X3.5461Y-4.8628
X3.5603Y-3.9888
X3.6461Y-4.4494
X3.6461Y-4.5628
X3.6461Y-4.8628
X3.6603Y-3.9888
X3.7461Y-4.4494
X3.7461Y-4.5628
X3.7461Y-4.8628
X3.7603Y-3.9888
X3.8461Y-4.4494
X3.8461Y-4.5628
X3.8461Y-4.8628
X3.8603Y-3.9888
X3.9603Y-3.9888
X4.0603Y-3.9888
X4.1603Y-3.9888
T3
X4.1076Y-4.5479
X4.1076Y-4.6479
X4.1076Y-4.7479
X4.1076Y-4.8904
X4.1312Y-4.3825
T4
X4.3398Y-4.0361
X4.3398Y-4.8471
T0
M30
